%TF.GenerationSoftware,KiCad,Pcbnew,9.0.5*%
%TF.CreationDate,2026-02-26T11:59:15-08:00*%
%TF.ProjectId,Mitchel_Ezekiel_Robot,4d697463-6865-46c5-9f45-7a656b69656c,rev?*%
%TF.SameCoordinates,Original*%
%TF.FileFunction,Profile,NP*%
%FSLAX46Y46*%
G04 Gerber Fmt 4.6, Leading zero omitted, Abs format (unit mm)*
G04 Created by KiCad (PCBNEW 9.0.5) date 2026-02-26 11:59:15*
%MOMM*%
%LPD*%
G01*
G04 APERTURE LIST*
%TA.AperFunction,Profile*%
%ADD10C,0.050000*%
%TD*%
G04 APERTURE END LIST*
D10*
%TO.C,REF\u002A\u002A*%
X70685000Y-131557000D02*
X70685000Y-48289000D01*
X169027000Y-115755000D02*
X189027000Y-115755000D01*
X169027000Y-121055000D02*
X169027000Y-115755000D01*
X169027000Y-121055000D02*
X169077000Y-121055000D01*
X169027000Y-121605000D02*
X169027000Y-123155000D01*
X169027000Y-121605000D02*
X169077000Y-121605000D01*
X169027000Y-123155000D02*
X169077000Y-123155000D01*
X169027000Y-123705000D02*
X169077000Y-123705000D01*
X169027000Y-125055000D02*
X169027000Y-123705000D01*
X169027000Y-125055000D02*
X169077000Y-125055000D01*
X169027000Y-125605000D02*
X169027000Y-129655000D01*
X169027000Y-125605000D02*
X169077000Y-125605000D01*
X169067000Y-50185000D02*
X175567000Y-50185000D01*
X169067000Y-55485000D02*
X169067000Y-50185000D01*
X169067000Y-55485000D02*
X169117000Y-55485000D01*
X169067000Y-56035000D02*
X169067000Y-57585000D01*
X169067000Y-56035000D02*
X169117000Y-56035000D01*
X169067000Y-57585000D02*
X169117000Y-57585000D01*
X169067000Y-58135000D02*
X169117000Y-58135000D01*
X169067000Y-59485000D02*
X169067000Y-58135000D01*
X169067000Y-59485000D02*
X169117000Y-59485000D01*
X169067000Y-60035000D02*
X169067000Y-64085000D01*
X169067000Y-60035000D02*
X169117000Y-60035000D01*
X169077000Y-121605000D02*
X169077000Y-121055000D01*
X169077000Y-123705000D02*
X169077000Y-123155000D01*
X169077000Y-125605000D02*
X169077000Y-125055000D01*
X169117000Y-56035000D02*
X169117000Y-55485000D01*
X169117000Y-58135000D02*
X169117000Y-57585000D01*
X169117000Y-60035000D02*
X169117000Y-59485000D01*
X175527000Y-129655000D02*
X169027000Y-129655000D01*
X175527000Y-131555000D02*
X175527000Y-129655000D01*
X175527000Y-131557000D02*
X70685000Y-131557000D01*
X175567000Y-48285000D02*
X70685000Y-48289000D01*
X175567000Y-50185000D02*
X175567000Y-48285000D01*
X182527000Y-129655000D02*
X182527000Y-131555000D01*
X182527000Y-131557000D02*
X209635000Y-131557000D01*
X182567000Y-48285000D02*
X182567000Y-50185000D01*
X182567000Y-50185000D02*
X189067000Y-50185000D01*
X188977000Y-119805000D02*
X188977000Y-120355000D01*
X188977000Y-121705000D02*
X188977000Y-122255000D01*
X188977000Y-123805000D02*
X188977000Y-124355000D01*
X189017000Y-54235000D02*
X189017000Y-54785000D01*
X189017000Y-56135000D02*
X189017000Y-56685000D01*
X189017000Y-58235000D02*
X189017000Y-58785000D01*
X189027000Y-119805000D02*
X188977000Y-119805000D01*
X189027000Y-119805000D02*
X189027000Y-115755000D01*
X189027000Y-120355000D02*
X188977000Y-120355000D01*
X189027000Y-120355000D02*
X189027000Y-121705000D01*
X189027000Y-121705000D02*
X188977000Y-121705000D01*
X189027000Y-122255000D02*
X188977000Y-122255000D01*
X189027000Y-123805000D02*
X188977000Y-123805000D01*
X189027000Y-123805000D02*
X189027000Y-122255000D01*
X189027000Y-124355000D02*
X188977000Y-124355000D01*
X189027000Y-124355000D02*
X189027000Y-129655000D01*
X189027000Y-129655000D02*
X182527000Y-129655000D01*
X189067000Y-54235000D02*
X189017000Y-54235000D01*
X189067000Y-54235000D02*
X189067000Y-50185000D01*
X189067000Y-54785000D02*
X189017000Y-54785000D01*
X189067000Y-54785000D02*
X189067000Y-56135000D01*
X189067000Y-56135000D02*
X189017000Y-56135000D01*
X189067000Y-56685000D02*
X189017000Y-56685000D01*
X189067000Y-58235000D02*
X189017000Y-58235000D01*
X189067000Y-58235000D02*
X189067000Y-56685000D01*
X189067000Y-58785000D02*
X189017000Y-58785000D01*
X189067000Y-58785000D02*
X189067000Y-64085000D01*
X189067000Y-64085000D02*
X169067000Y-64085000D01*
X209635000Y-48285000D02*
X182567000Y-48285000D01*
X209635000Y-48285000D02*
X209635000Y-131549000D01*
%TD*%
M02*
