%TF.GenerationSoftware,KiCad,Pcbnew,9.0.5*%
%TF.CreationDate,2026-02-26T11:59:15-08:00*%
%TF.ProjectId,Mitchel_Ezekiel_Robot,4d697463-6865-46c5-9f45-7a656b69656c,rev?*%
%TF.SameCoordinates,Original*%
%TF.FileFunction,Legend,Top*%
%TF.FilePolarity,Positive*%
%FSLAX46Y46*%
G04 Gerber Fmt 4.6, Leading zero omitted, Abs format (unit mm)*
G04 Created by KiCad (PCBNEW 9.0.5) date 2026-02-26 11:59:15*
%MOMM*%
%LPD*%
G01*
G04 APERTURE LIST*
%ADD10C,0.150000*%
%ADD11C,0.100000*%
%ADD12C,0.120000*%
%ADD13C,0.127000*%
%ADD14C,0.200000*%
G04 APERTURE END LIST*
D10*
X121123333Y-59864819D02*
X120790000Y-59388628D01*
X120551905Y-59864819D02*
X120551905Y-58864819D01*
X120551905Y-58864819D02*
X120932857Y-58864819D01*
X120932857Y-58864819D02*
X121028095Y-58912438D01*
X121028095Y-58912438D02*
X121075714Y-58960057D01*
X121075714Y-58960057D02*
X121123333Y-59055295D01*
X121123333Y-59055295D02*
X121123333Y-59198152D01*
X121123333Y-59198152D02*
X121075714Y-59293390D01*
X121075714Y-59293390D02*
X121028095Y-59341009D01*
X121028095Y-59341009D02*
X120932857Y-59388628D01*
X120932857Y-59388628D02*
X120551905Y-59388628D01*
X121980476Y-58864819D02*
X121790000Y-58864819D01*
X121790000Y-58864819D02*
X121694762Y-58912438D01*
X121694762Y-58912438D02*
X121647143Y-58960057D01*
X121647143Y-58960057D02*
X121551905Y-59102914D01*
X121551905Y-59102914D02*
X121504286Y-59293390D01*
X121504286Y-59293390D02*
X121504286Y-59674342D01*
X121504286Y-59674342D02*
X121551905Y-59769580D01*
X121551905Y-59769580D02*
X121599524Y-59817200D01*
X121599524Y-59817200D02*
X121694762Y-59864819D01*
X121694762Y-59864819D02*
X121885238Y-59864819D01*
X121885238Y-59864819D02*
X121980476Y-59817200D01*
X121980476Y-59817200D02*
X122028095Y-59769580D01*
X122028095Y-59769580D02*
X122075714Y-59674342D01*
X122075714Y-59674342D02*
X122075714Y-59436247D01*
X122075714Y-59436247D02*
X122028095Y-59341009D01*
X122028095Y-59341009D02*
X121980476Y-59293390D01*
X121980476Y-59293390D02*
X121885238Y-59245771D01*
X121885238Y-59245771D02*
X121694762Y-59245771D01*
X121694762Y-59245771D02*
X121599524Y-59293390D01*
X121599524Y-59293390D02*
X121551905Y-59341009D01*
X121551905Y-59341009D02*
X121504286Y-59436247D01*
X79841905Y-128734819D02*
X79841905Y-127734819D01*
X79841905Y-127734819D02*
X80080000Y-127734819D01*
X80080000Y-127734819D02*
X80222857Y-127782438D01*
X80222857Y-127782438D02*
X80318095Y-127877676D01*
X80318095Y-127877676D02*
X80365714Y-127972914D01*
X80365714Y-127972914D02*
X80413333Y-128163390D01*
X80413333Y-128163390D02*
X80413333Y-128306247D01*
X80413333Y-128306247D02*
X80365714Y-128496723D01*
X80365714Y-128496723D02*
X80318095Y-128591961D01*
X80318095Y-128591961D02*
X80222857Y-128687200D01*
X80222857Y-128687200D02*
X80080000Y-128734819D01*
X80080000Y-128734819D02*
X79841905Y-128734819D01*
X81270476Y-128068152D02*
X81270476Y-128734819D01*
X81032381Y-127687200D02*
X80794286Y-128401485D01*
X80794286Y-128401485D02*
X81413333Y-128401485D01*
X167333333Y-99299580D02*
X167285714Y-99347200D01*
X167285714Y-99347200D02*
X167142857Y-99394819D01*
X167142857Y-99394819D02*
X167047619Y-99394819D01*
X167047619Y-99394819D02*
X166904762Y-99347200D01*
X166904762Y-99347200D02*
X166809524Y-99251961D01*
X166809524Y-99251961D02*
X166761905Y-99156723D01*
X166761905Y-99156723D02*
X166714286Y-98966247D01*
X166714286Y-98966247D02*
X166714286Y-98823390D01*
X166714286Y-98823390D02*
X166761905Y-98632914D01*
X166761905Y-98632914D02*
X166809524Y-98537676D01*
X166809524Y-98537676D02*
X166904762Y-98442438D01*
X166904762Y-98442438D02*
X167047619Y-98394819D01*
X167047619Y-98394819D02*
X167142857Y-98394819D01*
X167142857Y-98394819D02*
X167285714Y-98442438D01*
X167285714Y-98442438D02*
X167333333Y-98490057D01*
X168190476Y-98728152D02*
X168190476Y-99394819D01*
X167952381Y-98347200D02*
X167714286Y-99061485D01*
X167714286Y-99061485D02*
X168333333Y-99061485D01*
X202411905Y-96744819D02*
X202411905Y-95744819D01*
X202411905Y-95744819D02*
X202650000Y-95744819D01*
X202650000Y-95744819D02*
X202792857Y-95792438D01*
X202792857Y-95792438D02*
X202888095Y-95887676D01*
X202888095Y-95887676D02*
X202935714Y-95982914D01*
X202935714Y-95982914D02*
X202983333Y-96173390D01*
X202983333Y-96173390D02*
X202983333Y-96316247D01*
X202983333Y-96316247D02*
X202935714Y-96506723D01*
X202935714Y-96506723D02*
X202888095Y-96601961D01*
X202888095Y-96601961D02*
X202792857Y-96697200D01*
X202792857Y-96697200D02*
X202650000Y-96744819D01*
X202650000Y-96744819D02*
X202411905Y-96744819D01*
X203364286Y-95840057D02*
X203411905Y-95792438D01*
X203411905Y-95792438D02*
X203507143Y-95744819D01*
X203507143Y-95744819D02*
X203745238Y-95744819D01*
X203745238Y-95744819D02*
X203840476Y-95792438D01*
X203840476Y-95792438D02*
X203888095Y-95840057D01*
X203888095Y-95840057D02*
X203935714Y-95935295D01*
X203935714Y-95935295D02*
X203935714Y-96030533D01*
X203935714Y-96030533D02*
X203888095Y-96173390D01*
X203888095Y-96173390D02*
X203316667Y-96744819D01*
X203316667Y-96744819D02*
X203935714Y-96744819D01*
X86263333Y-118394819D02*
X85930000Y-117918628D01*
X85691905Y-118394819D02*
X85691905Y-117394819D01*
X85691905Y-117394819D02*
X86072857Y-117394819D01*
X86072857Y-117394819D02*
X86168095Y-117442438D01*
X86168095Y-117442438D02*
X86215714Y-117490057D01*
X86215714Y-117490057D02*
X86263333Y-117585295D01*
X86263333Y-117585295D02*
X86263333Y-117728152D01*
X86263333Y-117728152D02*
X86215714Y-117823390D01*
X86215714Y-117823390D02*
X86168095Y-117871009D01*
X86168095Y-117871009D02*
X86072857Y-117918628D01*
X86072857Y-117918628D02*
X85691905Y-117918628D01*
X87215714Y-118394819D02*
X86644286Y-118394819D01*
X86930000Y-118394819D02*
X86930000Y-117394819D01*
X86930000Y-117394819D02*
X86834762Y-117537676D01*
X86834762Y-117537676D02*
X86739524Y-117632914D01*
X86739524Y-117632914D02*
X86644286Y-117680533D01*
X195362905Y-67514819D02*
X195362905Y-66514819D01*
X195362905Y-66514819D02*
X195601000Y-66514819D01*
X195601000Y-66514819D02*
X195743857Y-66562438D01*
X195743857Y-66562438D02*
X195839095Y-66657676D01*
X195839095Y-66657676D02*
X195886714Y-66752914D01*
X195886714Y-66752914D02*
X195934333Y-66943390D01*
X195934333Y-66943390D02*
X195934333Y-67086247D01*
X195934333Y-67086247D02*
X195886714Y-67276723D01*
X195886714Y-67276723D02*
X195839095Y-67371961D01*
X195839095Y-67371961D02*
X195743857Y-67467200D01*
X195743857Y-67467200D02*
X195601000Y-67514819D01*
X195601000Y-67514819D02*
X195362905Y-67514819D01*
X196839095Y-66514819D02*
X196362905Y-66514819D01*
X196362905Y-66514819D02*
X196315286Y-66991009D01*
X196315286Y-66991009D02*
X196362905Y-66943390D01*
X196362905Y-66943390D02*
X196458143Y-66895771D01*
X196458143Y-66895771D02*
X196696238Y-66895771D01*
X196696238Y-66895771D02*
X196791476Y-66943390D01*
X196791476Y-66943390D02*
X196839095Y-66991009D01*
X196839095Y-66991009D02*
X196886714Y-67086247D01*
X196886714Y-67086247D02*
X196886714Y-67324342D01*
X196886714Y-67324342D02*
X196839095Y-67419580D01*
X196839095Y-67419580D02*
X196791476Y-67467200D01*
X196791476Y-67467200D02*
X196696238Y-67514819D01*
X196696238Y-67514819D02*
X196458143Y-67514819D01*
X196458143Y-67514819D02*
X196362905Y-67467200D01*
X196362905Y-67467200D02*
X196315286Y-67419580D01*
X194233333Y-81404819D02*
X193900000Y-80928628D01*
X193661905Y-81404819D02*
X193661905Y-80404819D01*
X193661905Y-80404819D02*
X194042857Y-80404819D01*
X194042857Y-80404819D02*
X194138095Y-80452438D01*
X194138095Y-80452438D02*
X194185714Y-80500057D01*
X194185714Y-80500057D02*
X194233333Y-80595295D01*
X194233333Y-80595295D02*
X194233333Y-80738152D01*
X194233333Y-80738152D02*
X194185714Y-80833390D01*
X194185714Y-80833390D02*
X194138095Y-80881009D01*
X194138095Y-80881009D02*
X194042857Y-80928628D01*
X194042857Y-80928628D02*
X193661905Y-80928628D01*
X194566667Y-80404819D02*
X195185714Y-80404819D01*
X195185714Y-80404819D02*
X194852381Y-80785771D01*
X194852381Y-80785771D02*
X194995238Y-80785771D01*
X194995238Y-80785771D02*
X195090476Y-80833390D01*
X195090476Y-80833390D02*
X195138095Y-80881009D01*
X195138095Y-80881009D02*
X195185714Y-80976247D01*
X195185714Y-80976247D02*
X195185714Y-81214342D01*
X195185714Y-81214342D02*
X195138095Y-81309580D01*
X195138095Y-81309580D02*
X195090476Y-81357200D01*
X195090476Y-81357200D02*
X194995238Y-81404819D01*
X194995238Y-81404819D02*
X194709524Y-81404819D01*
X194709524Y-81404819D02*
X194614286Y-81357200D01*
X194614286Y-81357200D02*
X194566667Y-81309580D01*
X167213333Y-79869580D02*
X167165714Y-79917200D01*
X167165714Y-79917200D02*
X167022857Y-79964819D01*
X167022857Y-79964819D02*
X166927619Y-79964819D01*
X166927619Y-79964819D02*
X166784762Y-79917200D01*
X166784762Y-79917200D02*
X166689524Y-79821961D01*
X166689524Y-79821961D02*
X166641905Y-79726723D01*
X166641905Y-79726723D02*
X166594286Y-79536247D01*
X166594286Y-79536247D02*
X166594286Y-79393390D01*
X166594286Y-79393390D02*
X166641905Y-79202914D01*
X166641905Y-79202914D02*
X166689524Y-79107676D01*
X166689524Y-79107676D02*
X166784762Y-79012438D01*
X166784762Y-79012438D02*
X166927619Y-78964819D01*
X166927619Y-78964819D02*
X167022857Y-78964819D01*
X167022857Y-78964819D02*
X167165714Y-79012438D01*
X167165714Y-79012438D02*
X167213333Y-79060057D01*
X168118095Y-78964819D02*
X167641905Y-78964819D01*
X167641905Y-78964819D02*
X167594286Y-79441009D01*
X167594286Y-79441009D02*
X167641905Y-79393390D01*
X167641905Y-79393390D02*
X167737143Y-79345771D01*
X167737143Y-79345771D02*
X167975238Y-79345771D01*
X167975238Y-79345771D02*
X168070476Y-79393390D01*
X168070476Y-79393390D02*
X168118095Y-79441009D01*
X168118095Y-79441009D02*
X168165714Y-79536247D01*
X168165714Y-79536247D02*
X168165714Y-79774342D01*
X168165714Y-79774342D02*
X168118095Y-79869580D01*
X168118095Y-79869580D02*
X168070476Y-79917200D01*
X168070476Y-79917200D02*
X167975238Y-79964819D01*
X167975238Y-79964819D02*
X167737143Y-79964819D01*
X167737143Y-79964819D02*
X167641905Y-79917200D01*
X167641905Y-79917200D02*
X167594286Y-79869580D01*
D11*
X106808580Y-86300666D02*
X107284771Y-85967333D01*
X106808580Y-85729238D02*
X107808580Y-85729238D01*
X107808580Y-85729238D02*
X107808580Y-86110190D01*
X107808580Y-86110190D02*
X107760961Y-86205428D01*
X107760961Y-86205428D02*
X107713342Y-86253047D01*
X107713342Y-86253047D02*
X107618104Y-86300666D01*
X107618104Y-86300666D02*
X107475247Y-86300666D01*
X107475247Y-86300666D02*
X107380009Y-86253047D01*
X107380009Y-86253047D02*
X107332390Y-86205428D01*
X107332390Y-86205428D02*
X107284771Y-86110190D01*
X107284771Y-86110190D02*
X107284771Y-85729238D01*
X107332390Y-86729238D02*
X107332390Y-87062571D01*
X106808580Y-87205428D02*
X106808580Y-86729238D01*
X106808580Y-86729238D02*
X107808580Y-86729238D01*
X107808580Y-86729238D02*
X107808580Y-87205428D01*
X107332390Y-87967333D02*
X107332390Y-87634000D01*
X106808580Y-87634000D02*
X107808580Y-87634000D01*
X107808580Y-87634000D02*
X107808580Y-88110190D01*
X107808580Y-88634000D02*
X107570485Y-88634000D01*
X107665723Y-88395905D02*
X107570485Y-88634000D01*
X107570485Y-88634000D02*
X107665723Y-88872095D01*
X107380009Y-88491143D02*
X107570485Y-88634000D01*
X107570485Y-88634000D02*
X107380009Y-88776857D01*
X107808580Y-89395905D02*
X107570485Y-89395905D01*
X107665723Y-89157810D02*
X107570485Y-89395905D01*
X107570485Y-89395905D02*
X107665723Y-89634000D01*
X107380009Y-89253048D02*
X107570485Y-89395905D01*
X107570485Y-89395905D02*
X107380009Y-89538762D01*
D10*
X89721667Y-117477200D02*
X89864524Y-117524819D01*
X89864524Y-117524819D02*
X90102619Y-117524819D01*
X90102619Y-117524819D02*
X90197857Y-117477200D01*
X90197857Y-117477200D02*
X90245476Y-117429580D01*
X90245476Y-117429580D02*
X90293095Y-117334342D01*
X90293095Y-117334342D02*
X90293095Y-117239104D01*
X90293095Y-117239104D02*
X90245476Y-117143866D01*
X90245476Y-117143866D02*
X90197857Y-117096247D01*
X90197857Y-117096247D02*
X90102619Y-117048628D01*
X90102619Y-117048628D02*
X89912143Y-117001009D01*
X89912143Y-117001009D02*
X89816905Y-116953390D01*
X89816905Y-116953390D02*
X89769286Y-116905771D01*
X89769286Y-116905771D02*
X89721667Y-116810533D01*
X89721667Y-116810533D02*
X89721667Y-116715295D01*
X89721667Y-116715295D02*
X89769286Y-116620057D01*
X89769286Y-116620057D02*
X89816905Y-116572438D01*
X89816905Y-116572438D02*
X89912143Y-116524819D01*
X89912143Y-116524819D02*
X90150238Y-116524819D01*
X90150238Y-116524819D02*
X90293095Y-116572438D01*
X90626429Y-116524819D02*
X90864524Y-117524819D01*
X90864524Y-117524819D02*
X91055000Y-116810533D01*
X91055000Y-116810533D02*
X91245476Y-117524819D01*
X91245476Y-117524819D02*
X91483572Y-116524819D01*
X92388333Y-117524819D02*
X91816905Y-117524819D01*
X92102619Y-117524819D02*
X92102619Y-116524819D01*
X92102619Y-116524819D02*
X92007381Y-116667676D01*
X92007381Y-116667676D02*
X91912143Y-116762914D01*
X91912143Y-116762914D02*
X91816905Y-116810533D01*
X186256666Y-84644819D02*
X186256666Y-85359104D01*
X186256666Y-85359104D02*
X186209047Y-85501961D01*
X186209047Y-85501961D02*
X186113809Y-85597200D01*
X186113809Y-85597200D02*
X185970952Y-85644819D01*
X185970952Y-85644819D02*
X185875714Y-85644819D01*
X187161428Y-84644819D02*
X186970952Y-84644819D01*
X186970952Y-84644819D02*
X186875714Y-84692438D01*
X186875714Y-84692438D02*
X186828095Y-84740057D01*
X186828095Y-84740057D02*
X186732857Y-84882914D01*
X186732857Y-84882914D02*
X186685238Y-85073390D01*
X186685238Y-85073390D02*
X186685238Y-85454342D01*
X186685238Y-85454342D02*
X186732857Y-85549580D01*
X186732857Y-85549580D02*
X186780476Y-85597200D01*
X186780476Y-85597200D02*
X186875714Y-85644819D01*
X186875714Y-85644819D02*
X187066190Y-85644819D01*
X187066190Y-85644819D02*
X187161428Y-85597200D01*
X187161428Y-85597200D02*
X187209047Y-85549580D01*
X187209047Y-85549580D02*
X187256666Y-85454342D01*
X187256666Y-85454342D02*
X187256666Y-85216247D01*
X187256666Y-85216247D02*
X187209047Y-85121009D01*
X187209047Y-85121009D02*
X187161428Y-85073390D01*
X187161428Y-85073390D02*
X187066190Y-85025771D01*
X187066190Y-85025771D02*
X186875714Y-85025771D01*
X186875714Y-85025771D02*
X186780476Y-85073390D01*
X186780476Y-85073390D02*
X186732857Y-85121009D01*
X186732857Y-85121009D02*
X186685238Y-85216247D01*
X105370476Y-71474819D02*
X105370476Y-70474819D01*
X105370476Y-70951009D02*
X105941904Y-70951009D01*
X105941904Y-71474819D02*
X105941904Y-70474819D01*
X106608571Y-70474819D02*
X106799047Y-70474819D01*
X106799047Y-70474819D02*
X106894285Y-70522438D01*
X106894285Y-70522438D02*
X106989523Y-70617676D01*
X106989523Y-70617676D02*
X107037142Y-70808152D01*
X107037142Y-70808152D02*
X107037142Y-71141485D01*
X107037142Y-71141485D02*
X106989523Y-71331961D01*
X106989523Y-71331961D02*
X106894285Y-71427200D01*
X106894285Y-71427200D02*
X106799047Y-71474819D01*
X106799047Y-71474819D02*
X106608571Y-71474819D01*
X106608571Y-71474819D02*
X106513333Y-71427200D01*
X106513333Y-71427200D02*
X106418095Y-71331961D01*
X106418095Y-71331961D02*
X106370476Y-71141485D01*
X106370476Y-71141485D02*
X106370476Y-70808152D01*
X106370476Y-70808152D02*
X106418095Y-70617676D01*
X106418095Y-70617676D02*
X106513333Y-70522438D01*
X106513333Y-70522438D02*
X106608571Y-70474819D01*
X108037142Y-71474819D02*
X107703809Y-70998628D01*
X107465714Y-71474819D02*
X107465714Y-70474819D01*
X107465714Y-70474819D02*
X107846666Y-70474819D01*
X107846666Y-70474819D02*
X107941904Y-70522438D01*
X107941904Y-70522438D02*
X107989523Y-70570057D01*
X107989523Y-70570057D02*
X108037142Y-70665295D01*
X108037142Y-70665295D02*
X108037142Y-70808152D01*
X108037142Y-70808152D02*
X107989523Y-70903390D01*
X107989523Y-70903390D02*
X107941904Y-70951009D01*
X107941904Y-70951009D02*
X107846666Y-70998628D01*
X107846666Y-70998628D02*
X107465714Y-70998628D01*
X108465714Y-71474819D02*
X108465714Y-70474819D01*
X108465714Y-70474819D02*
X109037142Y-71474819D01*
X109037142Y-71474819D02*
X109037142Y-70474819D01*
X110037142Y-71474819D02*
X109465714Y-71474819D01*
X109751428Y-71474819D02*
X109751428Y-70474819D01*
X109751428Y-70474819D02*
X109656190Y-70617676D01*
X109656190Y-70617676D02*
X109560952Y-70712914D01*
X109560952Y-70712914D02*
X109465714Y-70760533D01*
X107551666Y-109969819D02*
X107551666Y-110684104D01*
X107551666Y-110684104D02*
X107504047Y-110826961D01*
X107504047Y-110826961D02*
X107408809Y-110922200D01*
X107408809Y-110922200D02*
X107265952Y-110969819D01*
X107265952Y-110969819D02*
X107170714Y-110969819D01*
X107932619Y-109969819D02*
X108599285Y-109969819D01*
X108599285Y-109969819D02*
X108170714Y-110969819D01*
X85541905Y-128624819D02*
X85541905Y-127624819D01*
X85541905Y-127624819D02*
X85780000Y-127624819D01*
X85780000Y-127624819D02*
X85922857Y-127672438D01*
X85922857Y-127672438D02*
X86018095Y-127767676D01*
X86018095Y-127767676D02*
X86065714Y-127862914D01*
X86065714Y-127862914D02*
X86113333Y-128053390D01*
X86113333Y-128053390D02*
X86113333Y-128196247D01*
X86113333Y-128196247D02*
X86065714Y-128386723D01*
X86065714Y-128386723D02*
X86018095Y-128481961D01*
X86018095Y-128481961D02*
X85922857Y-128577200D01*
X85922857Y-128577200D02*
X85780000Y-128624819D01*
X85780000Y-128624819D02*
X85541905Y-128624819D01*
X87065714Y-128624819D02*
X86494286Y-128624819D01*
X86780000Y-128624819D02*
X86780000Y-127624819D01*
X86780000Y-127624819D02*
X86684762Y-127767676D01*
X86684762Y-127767676D02*
X86589524Y-127862914D01*
X86589524Y-127862914D02*
X86494286Y-127910533D01*
X125563333Y-69614819D02*
X125230000Y-69138628D01*
X124991905Y-69614819D02*
X124991905Y-68614819D01*
X124991905Y-68614819D02*
X125372857Y-68614819D01*
X125372857Y-68614819D02*
X125468095Y-68662438D01*
X125468095Y-68662438D02*
X125515714Y-68710057D01*
X125515714Y-68710057D02*
X125563333Y-68805295D01*
X125563333Y-68805295D02*
X125563333Y-68948152D01*
X125563333Y-68948152D02*
X125515714Y-69043390D01*
X125515714Y-69043390D02*
X125468095Y-69091009D01*
X125468095Y-69091009D02*
X125372857Y-69138628D01*
X125372857Y-69138628D02*
X124991905Y-69138628D01*
X125896667Y-68614819D02*
X126563333Y-68614819D01*
X126563333Y-68614819D02*
X126134762Y-69614819D01*
X194092333Y-92054819D02*
X193759000Y-91578628D01*
X193520905Y-92054819D02*
X193520905Y-91054819D01*
X193520905Y-91054819D02*
X193901857Y-91054819D01*
X193901857Y-91054819D02*
X193997095Y-91102438D01*
X193997095Y-91102438D02*
X194044714Y-91150057D01*
X194044714Y-91150057D02*
X194092333Y-91245295D01*
X194092333Y-91245295D02*
X194092333Y-91388152D01*
X194092333Y-91388152D02*
X194044714Y-91483390D01*
X194044714Y-91483390D02*
X193997095Y-91531009D01*
X193997095Y-91531009D02*
X193901857Y-91578628D01*
X193901857Y-91578628D02*
X193520905Y-91578628D01*
X194473286Y-91150057D02*
X194520905Y-91102438D01*
X194520905Y-91102438D02*
X194616143Y-91054819D01*
X194616143Y-91054819D02*
X194854238Y-91054819D01*
X194854238Y-91054819D02*
X194949476Y-91102438D01*
X194949476Y-91102438D02*
X194997095Y-91150057D01*
X194997095Y-91150057D02*
X195044714Y-91245295D01*
X195044714Y-91245295D02*
X195044714Y-91340533D01*
X195044714Y-91340533D02*
X194997095Y-91483390D01*
X194997095Y-91483390D02*
X194425667Y-92054819D01*
X194425667Y-92054819D02*
X195044714Y-92054819D01*
X195958333Y-96314819D02*
X195625000Y-95838628D01*
X195386905Y-96314819D02*
X195386905Y-95314819D01*
X195386905Y-95314819D02*
X195767857Y-95314819D01*
X195767857Y-95314819D02*
X195863095Y-95362438D01*
X195863095Y-95362438D02*
X195910714Y-95410057D01*
X195910714Y-95410057D02*
X195958333Y-95505295D01*
X195958333Y-95505295D02*
X195958333Y-95648152D01*
X195958333Y-95648152D02*
X195910714Y-95743390D01*
X195910714Y-95743390D02*
X195863095Y-95791009D01*
X195863095Y-95791009D02*
X195767857Y-95838628D01*
X195767857Y-95838628D02*
X195386905Y-95838628D01*
X196863095Y-95314819D02*
X196386905Y-95314819D01*
X196386905Y-95314819D02*
X196339286Y-95791009D01*
X196339286Y-95791009D02*
X196386905Y-95743390D01*
X196386905Y-95743390D02*
X196482143Y-95695771D01*
X196482143Y-95695771D02*
X196720238Y-95695771D01*
X196720238Y-95695771D02*
X196815476Y-95743390D01*
X196815476Y-95743390D02*
X196863095Y-95791009D01*
X196863095Y-95791009D02*
X196910714Y-95886247D01*
X196910714Y-95886247D02*
X196910714Y-96124342D01*
X196910714Y-96124342D02*
X196863095Y-96219580D01*
X196863095Y-96219580D02*
X196815476Y-96267200D01*
X196815476Y-96267200D02*
X196720238Y-96314819D01*
X196720238Y-96314819D02*
X196482143Y-96314819D01*
X196482143Y-96314819D02*
X196386905Y-96267200D01*
X196386905Y-96267200D02*
X196339286Y-96219580D01*
X185539580Y-89296666D02*
X185587200Y-89344285D01*
X185587200Y-89344285D02*
X185634819Y-89487142D01*
X185634819Y-89487142D02*
X185634819Y-89582380D01*
X185634819Y-89582380D02*
X185587200Y-89725237D01*
X185587200Y-89725237D02*
X185491961Y-89820475D01*
X185491961Y-89820475D02*
X185396723Y-89868094D01*
X185396723Y-89868094D02*
X185206247Y-89915713D01*
X185206247Y-89915713D02*
X185063390Y-89915713D01*
X185063390Y-89915713D02*
X184872914Y-89868094D01*
X184872914Y-89868094D02*
X184777676Y-89820475D01*
X184777676Y-89820475D02*
X184682438Y-89725237D01*
X184682438Y-89725237D02*
X184634819Y-89582380D01*
X184634819Y-89582380D02*
X184634819Y-89487142D01*
X184634819Y-89487142D02*
X184682438Y-89344285D01*
X184682438Y-89344285D02*
X184730057Y-89296666D01*
X184634819Y-88963332D02*
X184634819Y-88344285D01*
X184634819Y-88344285D02*
X185015771Y-88677618D01*
X185015771Y-88677618D02*
X185015771Y-88534761D01*
X185015771Y-88534761D02*
X185063390Y-88439523D01*
X185063390Y-88439523D02*
X185111009Y-88391904D01*
X185111009Y-88391904D02*
X185206247Y-88344285D01*
X185206247Y-88344285D02*
X185444342Y-88344285D01*
X185444342Y-88344285D02*
X185539580Y-88391904D01*
X185539580Y-88391904D02*
X185587200Y-88439523D01*
X185587200Y-88439523D02*
X185634819Y-88534761D01*
X185634819Y-88534761D02*
X185634819Y-88820475D01*
X185634819Y-88820475D02*
X185587200Y-88915713D01*
X185587200Y-88915713D02*
X185539580Y-88963332D01*
X73663333Y-70419580D02*
X73615714Y-70467200D01*
X73615714Y-70467200D02*
X73472857Y-70514819D01*
X73472857Y-70514819D02*
X73377619Y-70514819D01*
X73377619Y-70514819D02*
X73234762Y-70467200D01*
X73234762Y-70467200D02*
X73139524Y-70371961D01*
X73139524Y-70371961D02*
X73091905Y-70276723D01*
X73091905Y-70276723D02*
X73044286Y-70086247D01*
X73044286Y-70086247D02*
X73044286Y-69943390D01*
X73044286Y-69943390D02*
X73091905Y-69752914D01*
X73091905Y-69752914D02*
X73139524Y-69657676D01*
X73139524Y-69657676D02*
X73234762Y-69562438D01*
X73234762Y-69562438D02*
X73377619Y-69514819D01*
X73377619Y-69514819D02*
X73472857Y-69514819D01*
X73472857Y-69514819D02*
X73615714Y-69562438D01*
X73615714Y-69562438D02*
X73663333Y-69610057D01*
X74044286Y-69610057D02*
X74091905Y-69562438D01*
X74091905Y-69562438D02*
X74187143Y-69514819D01*
X74187143Y-69514819D02*
X74425238Y-69514819D01*
X74425238Y-69514819D02*
X74520476Y-69562438D01*
X74520476Y-69562438D02*
X74568095Y-69610057D01*
X74568095Y-69610057D02*
X74615714Y-69705295D01*
X74615714Y-69705295D02*
X74615714Y-69800533D01*
X74615714Y-69800533D02*
X74568095Y-69943390D01*
X74568095Y-69943390D02*
X73996667Y-70514819D01*
X73996667Y-70514819D02*
X74615714Y-70514819D01*
X153359580Y-83176666D02*
X153407200Y-83224285D01*
X153407200Y-83224285D02*
X153454819Y-83367142D01*
X153454819Y-83367142D02*
X153454819Y-83462380D01*
X153454819Y-83462380D02*
X153407200Y-83605237D01*
X153407200Y-83605237D02*
X153311961Y-83700475D01*
X153311961Y-83700475D02*
X153216723Y-83748094D01*
X153216723Y-83748094D02*
X153026247Y-83795713D01*
X153026247Y-83795713D02*
X152883390Y-83795713D01*
X152883390Y-83795713D02*
X152692914Y-83748094D01*
X152692914Y-83748094D02*
X152597676Y-83700475D01*
X152597676Y-83700475D02*
X152502438Y-83605237D01*
X152502438Y-83605237D02*
X152454819Y-83462380D01*
X152454819Y-83462380D02*
X152454819Y-83367142D01*
X152454819Y-83367142D02*
X152502438Y-83224285D01*
X152502438Y-83224285D02*
X152550057Y-83176666D01*
X153454819Y-82224285D02*
X153454819Y-82795713D01*
X153454819Y-82509999D02*
X152454819Y-82509999D01*
X152454819Y-82509999D02*
X152597676Y-82605237D01*
X152597676Y-82605237D02*
X152692914Y-82700475D01*
X152692914Y-82700475D02*
X152740533Y-82795713D01*
X127597319Y-83849404D02*
X128406842Y-83849404D01*
X128406842Y-83849404D02*
X128502080Y-83801785D01*
X128502080Y-83801785D02*
X128549700Y-83754166D01*
X128549700Y-83754166D02*
X128597319Y-83658928D01*
X128597319Y-83658928D02*
X128597319Y-83468452D01*
X128597319Y-83468452D02*
X128549700Y-83373214D01*
X128549700Y-83373214D02*
X128502080Y-83325595D01*
X128502080Y-83325595D02*
X128406842Y-83277976D01*
X128406842Y-83277976D02*
X127597319Y-83277976D01*
X128597319Y-82277976D02*
X128597319Y-82849404D01*
X128597319Y-82563690D02*
X127597319Y-82563690D01*
X127597319Y-82563690D02*
X127740176Y-82658928D01*
X127740176Y-82658928D02*
X127835414Y-82754166D01*
X127835414Y-82754166D02*
X127883033Y-82849404D01*
X195342905Y-107554819D02*
X195342905Y-106554819D01*
X195342905Y-106554819D02*
X195581000Y-106554819D01*
X195581000Y-106554819D02*
X195723857Y-106602438D01*
X195723857Y-106602438D02*
X195819095Y-106697676D01*
X195819095Y-106697676D02*
X195866714Y-106792914D01*
X195866714Y-106792914D02*
X195914333Y-106983390D01*
X195914333Y-106983390D02*
X195914333Y-107126247D01*
X195914333Y-107126247D02*
X195866714Y-107316723D01*
X195866714Y-107316723D02*
X195819095Y-107411961D01*
X195819095Y-107411961D02*
X195723857Y-107507200D01*
X195723857Y-107507200D02*
X195581000Y-107554819D01*
X195581000Y-107554819D02*
X195342905Y-107554819D01*
X196771476Y-106554819D02*
X196581000Y-106554819D01*
X196581000Y-106554819D02*
X196485762Y-106602438D01*
X196485762Y-106602438D02*
X196438143Y-106650057D01*
X196438143Y-106650057D02*
X196342905Y-106792914D01*
X196342905Y-106792914D02*
X196295286Y-106983390D01*
X196295286Y-106983390D02*
X196295286Y-107364342D01*
X196295286Y-107364342D02*
X196342905Y-107459580D01*
X196342905Y-107459580D02*
X196390524Y-107507200D01*
X196390524Y-107507200D02*
X196485762Y-107554819D01*
X196485762Y-107554819D02*
X196676238Y-107554819D01*
X196676238Y-107554819D02*
X196771476Y-107507200D01*
X196771476Y-107507200D02*
X196819095Y-107459580D01*
X196819095Y-107459580D02*
X196866714Y-107364342D01*
X196866714Y-107364342D02*
X196866714Y-107126247D01*
X196866714Y-107126247D02*
X196819095Y-107031009D01*
X196819095Y-107031009D02*
X196771476Y-106983390D01*
X196771476Y-106983390D02*
X196676238Y-106935771D01*
X196676238Y-106935771D02*
X196485762Y-106935771D01*
X196485762Y-106935771D02*
X196390524Y-106983390D01*
X196390524Y-106983390D02*
X196342905Y-107031009D01*
X196342905Y-107031009D02*
X196295286Y-107126247D01*
X80101905Y-57664819D02*
X80101905Y-56664819D01*
X80101905Y-56664819D02*
X80340000Y-56664819D01*
X80340000Y-56664819D02*
X80482857Y-56712438D01*
X80482857Y-56712438D02*
X80578095Y-56807676D01*
X80578095Y-56807676D02*
X80625714Y-56902914D01*
X80625714Y-56902914D02*
X80673333Y-57093390D01*
X80673333Y-57093390D02*
X80673333Y-57236247D01*
X80673333Y-57236247D02*
X80625714Y-57426723D01*
X80625714Y-57426723D02*
X80578095Y-57521961D01*
X80578095Y-57521961D02*
X80482857Y-57617200D01*
X80482857Y-57617200D02*
X80340000Y-57664819D01*
X80340000Y-57664819D02*
X80101905Y-57664819D01*
X81006667Y-56664819D02*
X81625714Y-56664819D01*
X81625714Y-56664819D02*
X81292381Y-57045771D01*
X81292381Y-57045771D02*
X81435238Y-57045771D01*
X81435238Y-57045771D02*
X81530476Y-57093390D01*
X81530476Y-57093390D02*
X81578095Y-57141009D01*
X81578095Y-57141009D02*
X81625714Y-57236247D01*
X81625714Y-57236247D02*
X81625714Y-57474342D01*
X81625714Y-57474342D02*
X81578095Y-57569580D01*
X81578095Y-57569580D02*
X81530476Y-57617200D01*
X81530476Y-57617200D02*
X81435238Y-57664819D01*
X81435238Y-57664819D02*
X81149524Y-57664819D01*
X81149524Y-57664819D02*
X81054286Y-57617200D01*
X81054286Y-57617200D02*
X81006667Y-57569580D01*
D11*
X176526666Y-71042419D02*
X176526666Y-71756704D01*
X176526666Y-71756704D02*
X176479047Y-71899561D01*
X176479047Y-71899561D02*
X176383809Y-71994800D01*
X176383809Y-71994800D02*
X176240952Y-72042419D01*
X176240952Y-72042419D02*
X176145714Y-72042419D01*
X177479047Y-71042419D02*
X177002857Y-71042419D01*
X177002857Y-71042419D02*
X176955238Y-71518609D01*
X176955238Y-71518609D02*
X177002857Y-71470990D01*
X177002857Y-71470990D02*
X177098095Y-71423371D01*
X177098095Y-71423371D02*
X177336190Y-71423371D01*
X177336190Y-71423371D02*
X177431428Y-71470990D01*
X177431428Y-71470990D02*
X177479047Y-71518609D01*
X177479047Y-71518609D02*
X177526666Y-71613847D01*
X177526666Y-71613847D02*
X177526666Y-71851942D01*
X177526666Y-71851942D02*
X177479047Y-71947180D01*
X177479047Y-71947180D02*
X177431428Y-71994800D01*
X177431428Y-71994800D02*
X177336190Y-72042419D01*
X177336190Y-72042419D02*
X177098095Y-72042419D01*
X177098095Y-72042419D02*
X177002857Y-71994800D01*
X177002857Y-71994800D02*
X176955238Y-71947180D01*
D10*
X80238333Y-118464819D02*
X79905000Y-117988628D01*
X79666905Y-118464819D02*
X79666905Y-117464819D01*
X79666905Y-117464819D02*
X80047857Y-117464819D01*
X80047857Y-117464819D02*
X80143095Y-117512438D01*
X80143095Y-117512438D02*
X80190714Y-117560057D01*
X80190714Y-117560057D02*
X80238333Y-117655295D01*
X80238333Y-117655295D02*
X80238333Y-117798152D01*
X80238333Y-117798152D02*
X80190714Y-117893390D01*
X80190714Y-117893390D02*
X80143095Y-117941009D01*
X80143095Y-117941009D02*
X80047857Y-117988628D01*
X80047857Y-117988628D02*
X79666905Y-117988628D01*
X81095476Y-117798152D02*
X81095476Y-118464819D01*
X80857381Y-117417200D02*
X80619286Y-118131485D01*
X80619286Y-118131485D02*
X81238333Y-118131485D01*
X81636666Y-64714819D02*
X81636666Y-65429104D01*
X81636666Y-65429104D02*
X81589047Y-65571961D01*
X81589047Y-65571961D02*
X81493809Y-65667200D01*
X81493809Y-65667200D02*
X81350952Y-65714819D01*
X81350952Y-65714819D02*
X81255714Y-65714819D01*
X82636666Y-65714819D02*
X82065238Y-65714819D01*
X82350952Y-65714819D02*
X82350952Y-64714819D01*
X82350952Y-64714819D02*
X82255714Y-64857676D01*
X82255714Y-64857676D02*
X82160476Y-64952914D01*
X82160476Y-64952914D02*
X82065238Y-65000533D01*
X193773333Y-86469580D02*
X193725714Y-86517200D01*
X193725714Y-86517200D02*
X193582857Y-86564819D01*
X193582857Y-86564819D02*
X193487619Y-86564819D01*
X193487619Y-86564819D02*
X193344762Y-86517200D01*
X193344762Y-86517200D02*
X193249524Y-86421961D01*
X193249524Y-86421961D02*
X193201905Y-86326723D01*
X193201905Y-86326723D02*
X193154286Y-86136247D01*
X193154286Y-86136247D02*
X193154286Y-85993390D01*
X193154286Y-85993390D02*
X193201905Y-85802914D01*
X193201905Y-85802914D02*
X193249524Y-85707676D01*
X193249524Y-85707676D02*
X193344762Y-85612438D01*
X193344762Y-85612438D02*
X193487619Y-85564819D01*
X193487619Y-85564819D02*
X193582857Y-85564819D01*
X193582857Y-85564819D02*
X193725714Y-85612438D01*
X193725714Y-85612438D02*
X193773333Y-85660057D01*
X194106667Y-85564819D02*
X194773333Y-85564819D01*
X194773333Y-85564819D02*
X194344762Y-86564819D01*
X144856666Y-75864819D02*
X144856666Y-76579104D01*
X144856666Y-76579104D02*
X144809047Y-76721961D01*
X144809047Y-76721961D02*
X144713809Y-76817200D01*
X144713809Y-76817200D02*
X144570952Y-76864819D01*
X144570952Y-76864819D02*
X144475714Y-76864819D01*
X145285238Y-75960057D02*
X145332857Y-75912438D01*
X145332857Y-75912438D02*
X145428095Y-75864819D01*
X145428095Y-75864819D02*
X145666190Y-75864819D01*
X145666190Y-75864819D02*
X145761428Y-75912438D01*
X145761428Y-75912438D02*
X145809047Y-75960057D01*
X145809047Y-75960057D02*
X145856666Y-76055295D01*
X145856666Y-76055295D02*
X145856666Y-76150533D01*
X145856666Y-76150533D02*
X145809047Y-76293390D01*
X145809047Y-76293390D02*
X145237619Y-76864819D01*
X145237619Y-76864819D02*
X145856666Y-76864819D01*
X184093333Y-79689580D02*
X184045714Y-79737200D01*
X184045714Y-79737200D02*
X183902857Y-79784819D01*
X183902857Y-79784819D02*
X183807619Y-79784819D01*
X183807619Y-79784819D02*
X183664762Y-79737200D01*
X183664762Y-79737200D02*
X183569524Y-79641961D01*
X183569524Y-79641961D02*
X183521905Y-79546723D01*
X183521905Y-79546723D02*
X183474286Y-79356247D01*
X183474286Y-79356247D02*
X183474286Y-79213390D01*
X183474286Y-79213390D02*
X183521905Y-79022914D01*
X183521905Y-79022914D02*
X183569524Y-78927676D01*
X183569524Y-78927676D02*
X183664762Y-78832438D01*
X183664762Y-78832438D02*
X183807619Y-78784819D01*
X183807619Y-78784819D02*
X183902857Y-78784819D01*
X183902857Y-78784819D02*
X184045714Y-78832438D01*
X184045714Y-78832438D02*
X184093333Y-78880057D01*
X184950476Y-78784819D02*
X184760000Y-78784819D01*
X184760000Y-78784819D02*
X184664762Y-78832438D01*
X184664762Y-78832438D02*
X184617143Y-78880057D01*
X184617143Y-78880057D02*
X184521905Y-79022914D01*
X184521905Y-79022914D02*
X184474286Y-79213390D01*
X184474286Y-79213390D02*
X184474286Y-79594342D01*
X184474286Y-79594342D02*
X184521905Y-79689580D01*
X184521905Y-79689580D02*
X184569524Y-79737200D01*
X184569524Y-79737200D02*
X184664762Y-79784819D01*
X184664762Y-79784819D02*
X184855238Y-79784819D01*
X184855238Y-79784819D02*
X184950476Y-79737200D01*
X184950476Y-79737200D02*
X184998095Y-79689580D01*
X184998095Y-79689580D02*
X185045714Y-79594342D01*
X185045714Y-79594342D02*
X185045714Y-79356247D01*
X185045714Y-79356247D02*
X184998095Y-79261009D01*
X184998095Y-79261009D02*
X184950476Y-79213390D01*
X184950476Y-79213390D02*
X184855238Y-79165771D01*
X184855238Y-79165771D02*
X184664762Y-79165771D01*
X184664762Y-79165771D02*
X184569524Y-79213390D01*
X184569524Y-79213390D02*
X184521905Y-79261009D01*
X184521905Y-79261009D02*
X184474286Y-79356247D01*
X203944761Y-79625057D02*
X203849523Y-79577438D01*
X203849523Y-79577438D02*
X203754285Y-79482200D01*
X203754285Y-79482200D02*
X203611428Y-79339342D01*
X203611428Y-79339342D02*
X203516190Y-79291723D01*
X203516190Y-79291723D02*
X203420952Y-79291723D01*
X203468571Y-79529819D02*
X203373333Y-79482200D01*
X203373333Y-79482200D02*
X203278095Y-79386961D01*
X203278095Y-79386961D02*
X203230476Y-79196485D01*
X203230476Y-79196485D02*
X203230476Y-78863152D01*
X203230476Y-78863152D02*
X203278095Y-78672676D01*
X203278095Y-78672676D02*
X203373333Y-78577438D01*
X203373333Y-78577438D02*
X203468571Y-78529819D01*
X203468571Y-78529819D02*
X203659047Y-78529819D01*
X203659047Y-78529819D02*
X203754285Y-78577438D01*
X203754285Y-78577438D02*
X203849523Y-78672676D01*
X203849523Y-78672676D02*
X203897142Y-78863152D01*
X203897142Y-78863152D02*
X203897142Y-79196485D01*
X203897142Y-79196485D02*
X203849523Y-79386961D01*
X203849523Y-79386961D02*
X203754285Y-79482200D01*
X203754285Y-79482200D02*
X203659047Y-79529819D01*
X203659047Y-79529819D02*
X203468571Y-79529819D01*
X204849523Y-79529819D02*
X204278095Y-79529819D01*
X204563809Y-79529819D02*
X204563809Y-78529819D01*
X204563809Y-78529819D02*
X204468571Y-78672676D01*
X204468571Y-78672676D02*
X204373333Y-78767914D01*
X204373333Y-78767914D02*
X204278095Y-78815533D01*
X157604819Y-94311904D02*
X158414342Y-94311904D01*
X158414342Y-94311904D02*
X158509580Y-94264285D01*
X158509580Y-94264285D02*
X158557200Y-94216666D01*
X158557200Y-94216666D02*
X158604819Y-94121428D01*
X158604819Y-94121428D02*
X158604819Y-93930952D01*
X158604819Y-93930952D02*
X158557200Y-93835714D01*
X158557200Y-93835714D02*
X158509580Y-93788095D01*
X158509580Y-93788095D02*
X158414342Y-93740476D01*
X158414342Y-93740476D02*
X157604819Y-93740476D01*
X157604819Y-93359523D02*
X157604819Y-92740476D01*
X157604819Y-92740476D02*
X157985771Y-93073809D01*
X157985771Y-93073809D02*
X157985771Y-92930952D01*
X157985771Y-92930952D02*
X158033390Y-92835714D01*
X158033390Y-92835714D02*
X158081009Y-92788095D01*
X158081009Y-92788095D02*
X158176247Y-92740476D01*
X158176247Y-92740476D02*
X158414342Y-92740476D01*
X158414342Y-92740476D02*
X158509580Y-92788095D01*
X158509580Y-92788095D02*
X158557200Y-92835714D01*
X158557200Y-92835714D02*
X158604819Y-92930952D01*
X158604819Y-92930952D02*
X158604819Y-93216666D01*
X158604819Y-93216666D02*
X158557200Y-93311904D01*
X158557200Y-93311904D02*
X158509580Y-93359523D01*
D11*
X181453333Y-109592580D02*
X181453333Y-108878295D01*
X181453333Y-108878295D02*
X181500952Y-108735438D01*
X181500952Y-108735438D02*
X181596190Y-108640200D01*
X181596190Y-108640200D02*
X181739047Y-108592580D01*
X181739047Y-108592580D02*
X181834285Y-108592580D01*
X180548571Y-109259247D02*
X180548571Y-108592580D01*
X180786666Y-109640200D02*
X181024761Y-108925914D01*
X181024761Y-108925914D02*
X180405714Y-108925914D01*
D10*
X71356666Y-114134819D02*
X71356666Y-114849104D01*
X71356666Y-114849104D02*
X71309047Y-114991961D01*
X71309047Y-114991961D02*
X71213809Y-115087200D01*
X71213809Y-115087200D02*
X71070952Y-115134819D01*
X71070952Y-115134819D02*
X70975714Y-115134819D01*
X71737619Y-114134819D02*
X72356666Y-114134819D01*
X72356666Y-114134819D02*
X72023333Y-114515771D01*
X72023333Y-114515771D02*
X72166190Y-114515771D01*
X72166190Y-114515771D02*
X72261428Y-114563390D01*
X72261428Y-114563390D02*
X72309047Y-114611009D01*
X72309047Y-114611009D02*
X72356666Y-114706247D01*
X72356666Y-114706247D02*
X72356666Y-114944342D01*
X72356666Y-114944342D02*
X72309047Y-115039580D01*
X72309047Y-115039580D02*
X72261428Y-115087200D01*
X72261428Y-115087200D02*
X72166190Y-115134819D01*
X72166190Y-115134819D02*
X71880476Y-115134819D01*
X71880476Y-115134819D02*
X71785238Y-115087200D01*
X71785238Y-115087200D02*
X71737619Y-115039580D01*
D12*
%TO.C,R6*%
X123355000Y-61540000D02*
X123425000Y-61540000D01*
X123355000Y-61540000D02*
G75*
G02*
X120615000Y-61540000I-1370000J0D01*
G01*
X120615000Y-61540000D02*
G75*
G02*
X123355000Y-61540000I1370000J0D01*
G01*
%TO.C,D4*%
X80690000Y-123864000D02*
X80690000Y-124020000D01*
X80690000Y-126180000D02*
X80690000Y-126336000D01*
X80690000Y-123864484D02*
G75*
G02*
X83921437Y-124020000I1560000J-1235516D01*
G01*
X81209039Y-124020000D02*
G75*
G02*
X83290961Y-124020000I1040961J-1080000D01*
G01*
X83290961Y-126180000D02*
G75*
G02*
X81209039Y-126180000I-1040961J1080000D01*
G01*
X83921437Y-126180000D02*
G75*
G02*
X80690000Y-126335516I-1671437J1080000D01*
G01*
%TO.C,C4*%
X167160000Y-95280000D02*
X172400000Y-95280000D01*
X167160000Y-95617000D02*
X167160000Y-95280000D01*
X167160000Y-98020000D02*
X167160000Y-97683000D01*
X172400000Y-95280000D02*
X172400000Y-95617000D01*
X172400000Y-97683000D02*
X172400000Y-98020000D01*
X172400000Y-98020000D02*
X167160000Y-98020000D01*
%TO.C,D2*%
X207845000Y-89710000D02*
X204755000Y-89710000D01*
X206300000Y-95260000D02*
G75*
G02*
X204755170Y-89710000I0J2990000D01*
G01*
X207844830Y-89710000D02*
G75*
G02*
X206300000Y-95260000I-1544830J-2560000D01*
G01*
X208800000Y-92270000D02*
G75*
G02*
X203800000Y-92270000I-2500000J0D01*
G01*
X203800000Y-92270000D02*
G75*
G02*
X208800000Y-92270000I2500000J0D01*
G01*
%TO.C,R1*%
X88290000Y-120250000D02*
X88360000Y-120250000D01*
X88290000Y-120250000D02*
G75*
G02*
X85550000Y-120250000I-1370000J0D01*
G01*
X85550000Y-120250000D02*
G75*
G02*
X88290000Y-120250000I1370000J0D01*
G01*
%TO.C,D5*%
X194541000Y-68784000D02*
X194541000Y-68940000D01*
X194541000Y-71100000D02*
X194541000Y-71256000D01*
X194541000Y-68784484D02*
G75*
G02*
X197772437Y-68940000I1560000J-1235516D01*
G01*
X195060039Y-68940000D02*
G75*
G02*
X197141961Y-68940000I1040961J-1080000D01*
G01*
X197141961Y-71100000D02*
G75*
G02*
X195060039Y-71100000I-1040961J1080000D01*
G01*
X197772437Y-71100000D02*
G75*
G02*
X194541000Y-71255516I-1671437J1080000D01*
G01*
%TO.C,R3*%
X196395000Y-83140000D02*
X196465000Y-83140000D01*
X196395000Y-83140000D02*
G75*
G02*
X193655000Y-83140000I-1370000J0D01*
G01*
X193655000Y-83140000D02*
G75*
G02*
X196395000Y-83140000I1370000J0D01*
G01*
%TO.C,C5*%
X167160000Y-80300000D02*
X172400000Y-80300000D01*
X167160000Y-80637000D02*
X167160000Y-80300000D01*
X167160000Y-83040000D02*
X167160000Y-82703000D01*
X172400000Y-80300000D02*
X172400000Y-80637000D01*
X172400000Y-82703000D02*
X172400000Y-83040000D01*
X172400000Y-83040000D02*
X167160000Y-83040000D01*
%TO.C,SW1*%
X89690000Y-103880000D02*
X101890000Y-103880000D01*
X89690000Y-105870000D02*
X89690000Y-103880000D01*
X89690000Y-108790000D02*
X89690000Y-111170000D01*
X89690000Y-116080000D02*
X89690000Y-114090000D01*
X101890000Y-103880000D02*
X101890000Y-116080000D01*
X101890000Y-116080000D02*
X89690000Y-116080000D01*
X98440000Y-109980000D02*
G75*
G02*
X93140000Y-109980000I-2650000J0D01*
G01*
X93140000Y-109980000D02*
G75*
G02*
X98440000Y-109980000I2650000J0D01*
G01*
%TO.C,J6*%
X187870000Y-84620000D02*
X189250000Y-84620000D01*
X187870000Y-86000000D02*
X187870000Y-84620000D01*
X187870000Y-87270000D02*
X187870000Y-95000000D01*
X187870000Y-87270000D02*
X190630000Y-87270000D01*
X187870000Y-95000000D02*
X190630000Y-95000000D01*
X190630000Y-87270000D02*
X190630000Y-95000000D01*
%TO.C,HORN1*%
X114080000Y-62350001D02*
G75*
G02*
X114080000Y-65350000I-6400000J-1499999D01*
G01*
X113910000Y-63850000D02*
G75*
G02*
X101450000Y-63850000I-6230000J0D01*
G01*
X101450000Y-63850000D02*
G75*
G02*
X113910000Y-63850000I6230000J0D01*
G01*
%TO.C,J7*%
X106070000Y-109515000D02*
X106070000Y-105485000D01*
X106932077Y-105485000D02*
X106070000Y-105485000D01*
X106932077Y-109515000D02*
X106070000Y-109515000D01*
X108202077Y-105485000D02*
X107567923Y-105485000D01*
X109700000Y-105485000D02*
X108837923Y-105485000D01*
X109700000Y-107960000D02*
X109186708Y-107960000D01*
X109700000Y-107960000D02*
X109700000Y-105485000D01*
X109700000Y-108770000D02*
X109700000Y-109580000D01*
X109700000Y-109580000D02*
X108520000Y-109580000D01*
%TO.C,D1*%
X86310000Y-123954000D02*
X86310000Y-124110000D01*
X86310000Y-126270000D02*
X86310000Y-126426000D01*
X86310000Y-123954484D02*
G75*
G02*
X89541437Y-124110000I1560000J-1235516D01*
G01*
X86829039Y-124110000D02*
G75*
G02*
X88910961Y-124110000I1040961J-1080000D01*
G01*
X88910961Y-126270000D02*
G75*
G02*
X86829039Y-126270000I-1040961J1080000D01*
G01*
X89541437Y-126270000D02*
G75*
G02*
X86310000Y-126425516I-1671437J1080000D01*
G01*
%TO.C,R7*%
X124290000Y-63910000D02*
X121640000Y-63910000D01*
X124290000Y-68210000D02*
X121640000Y-68210000D01*
X121640000Y-68210000D02*
G75*
G02*
X121611973Y-63927855I1350000J2150000D01*
G01*
X124290000Y-63910000D02*
G75*
G02*
X124315476Y-68194388I-1300000J-2150000D01*
G01*
%TO.C,R2*%
X196285000Y-93710000D02*
X196355000Y-93710000D01*
X196285000Y-93710000D02*
G75*
G02*
X193545000Y-93710000I-1370000J0D01*
G01*
X193545000Y-93710000D02*
G75*
G02*
X196285000Y-93710000I1370000J0D01*
G01*
%TO.C,R5*%
X196225000Y-98230000D02*
X196295000Y-98230000D01*
X196225000Y-98230000D02*
G75*
G02*
X193485000Y-98230000I-1370000J0D01*
G01*
X193485000Y-98230000D02*
G75*
G02*
X196225000Y-98230000I1370000J0D01*
G01*
%TO.C,C3*%
X181310000Y-86510000D02*
X181647000Y-86510000D01*
X181310000Y-91750000D02*
X181310000Y-86510000D01*
X181647000Y-91750000D02*
X181310000Y-91750000D01*
X183713000Y-86510000D02*
X184050000Y-86510000D01*
X184050000Y-86510000D02*
X184050000Y-91750000D01*
X184050000Y-91750000D02*
X183713000Y-91750000D01*
%TO.C,C2*%
X73040000Y-71050000D02*
X78280000Y-71050000D01*
X73040000Y-71387000D02*
X73040000Y-71050000D01*
X73040000Y-73790000D02*
X73040000Y-73453000D01*
X78280000Y-71050000D02*
X78280000Y-71387000D01*
X78280000Y-73453000D02*
X78280000Y-73790000D01*
X78280000Y-73790000D02*
X73040000Y-73790000D01*
%TO.C,C1*%
X149260000Y-78590000D02*
X149597000Y-78590000D01*
X149260000Y-83830000D02*
X149260000Y-78590000D01*
X149597000Y-83830000D02*
X149260000Y-83830000D01*
X151663000Y-78590000D02*
X152000000Y-78590000D01*
X152000000Y-78590000D02*
X152000000Y-83830000D01*
X152000000Y-83830000D02*
X151663000Y-83830000D01*
D13*
%TO.C,U1*%
X70945000Y-85070000D02*
X70945000Y-93170000D01*
X70945000Y-93170000D02*
X71945000Y-93170000D01*
X71945000Y-76150000D02*
X71945000Y-85070000D01*
X71945000Y-85070000D02*
X70945000Y-85070000D01*
X71945000Y-93170000D02*
X71945000Y-102090000D01*
X72945000Y-75150000D02*
X119205000Y-75150000D01*
X72945000Y-103090000D02*
X119205000Y-103090000D01*
X120205000Y-76150000D02*
X120205000Y-80120000D01*
X120205000Y-80120000D02*
X126945000Y-80120000D01*
X120205000Y-98120000D02*
X120205000Y-102090000D01*
X126945000Y-80120000D02*
X126945000Y-98120000D01*
X126945000Y-98120000D02*
X120205000Y-98120000D01*
X71945000Y-76150000D02*
G75*
G02*
X72945000Y-75150000I999999J1D01*
G01*
X72945000Y-103090000D02*
G75*
G02*
X71945000Y-102090000I0J1000000D01*
G01*
X119205000Y-75150000D02*
G75*
G02*
X120205000Y-76150000I1J-999999D01*
G01*
X120205000Y-102090000D02*
G75*
G02*
X119205000Y-103090000I-1000000J0D01*
G01*
D14*
X119010000Y-74620000D02*
G75*
G02*
X118810000Y-74620000I-100000J0D01*
G01*
X118810000Y-74620000D02*
G75*
G02*
X119010000Y-74620000I100000J0D01*
G01*
D12*
%TO.C,D6*%
X194521000Y-108824000D02*
X194521000Y-108980000D01*
X194521000Y-111140000D02*
X194521000Y-111296000D01*
X194521000Y-108824484D02*
G75*
G02*
X197752437Y-108980000I1560000J-1235516D01*
G01*
X195040039Y-108980000D02*
G75*
G02*
X197121961Y-108980000I1040961J-1080000D01*
G01*
X197121961Y-111140000D02*
G75*
G02*
X195040039Y-111140000I-1040961J1080000D01*
G01*
X197752437Y-111140000D02*
G75*
G02*
X194521000Y-111295516I-1671437J1080000D01*
G01*
%TO.C,D3*%
X80890000Y-58814000D02*
X80890000Y-58970000D01*
X80890000Y-61130000D02*
X80890000Y-61286000D01*
X80890000Y-58814484D02*
G75*
G02*
X84121437Y-58970000I1560000J-1235516D01*
G01*
X81409039Y-58970000D02*
G75*
G02*
X83490961Y-58970000I1040961J-1080000D01*
G01*
X83490961Y-61130000D02*
G75*
G02*
X81409039Y-61130000I-1040961J1080000D01*
G01*
X84121437Y-61130000D02*
G75*
G02*
X80890000Y-61285516I-1671437J1080000D01*
G01*
%TO.C,J5*%
X171310000Y-77565000D02*
X171310000Y-76185000D01*
X172690000Y-77565000D02*
X171310000Y-77565000D01*
X173960000Y-74805000D02*
X186770000Y-74805000D01*
X173960000Y-77565000D02*
X173960000Y-74805000D01*
X173960000Y-77565000D02*
X186770000Y-77565000D01*
X186770000Y-77565000D02*
X186770000Y-74805000D01*
%TO.C,R4*%
X82475000Y-120240000D02*
X82545000Y-120240000D01*
X82475000Y-120240000D02*
G75*
G02*
X79735000Y-120240000I-1370000J0D01*
G01*
X79735000Y-120240000D02*
G75*
G02*
X82475000Y-120240000I1370000J0D01*
G01*
%TO.C,J1*%
X81340000Y-70070000D02*
X81340000Y-68890000D01*
X81405000Y-66440000D02*
X87975000Y-66440000D01*
X81405000Y-67302077D02*
X81405000Y-66440000D01*
X82150000Y-70070000D02*
X81340000Y-70070000D01*
X82960000Y-70070000D02*
X82960000Y-69556708D01*
X82960000Y-70070000D02*
X87975000Y-70070000D01*
X87975000Y-67302077D02*
X87975000Y-66440000D01*
X87975000Y-68572077D02*
X87975000Y-67937923D01*
X87975000Y-70070000D02*
X87975000Y-69207923D01*
%TO.C,C7*%
X193350000Y-86800000D02*
X198590000Y-86800000D01*
X193350000Y-87137000D02*
X193350000Y-86800000D01*
X193350000Y-89540000D02*
X193350000Y-89203000D01*
X198590000Y-86800000D02*
X198590000Y-87137000D01*
X198590000Y-89203000D02*
X198590000Y-89540000D01*
X198590000Y-89540000D02*
X193350000Y-89540000D01*
%TO.C,J2*%
X143810000Y-77410000D02*
X145190000Y-77410000D01*
X143810000Y-78790000D02*
X143810000Y-77410000D01*
X143810000Y-80060000D02*
X143810000Y-100490000D01*
X143810000Y-80060000D02*
X146570000Y-80060000D01*
X143810000Y-100490000D02*
X146570000Y-100490000D01*
X146570000Y-80060000D02*
X146570000Y-100490000D01*
%TO.C,C6*%
X184250000Y-80100000D02*
X189490000Y-80100000D01*
X184250000Y-80437000D02*
X184250000Y-80100000D01*
X184250000Y-82840000D02*
X184250000Y-82503000D01*
X189490000Y-80100000D02*
X189490000Y-80437000D01*
X189490000Y-82503000D02*
X189490000Y-82840000D01*
X189490000Y-82840000D02*
X184250000Y-82840000D01*
%TO.C,Q1*%
X207845000Y-81710000D02*
X204755000Y-81710000D01*
X206300000Y-87260000D02*
G75*
G02*
X204755170Y-81710000I0J2990000D01*
G01*
X207844830Y-81710000D02*
G75*
G02*
X206300000Y-87260000I-1544830J-2560000D01*
G01*
X208800000Y-84270000D02*
G75*
G02*
X203800000Y-84270000I-2500000J0D01*
G01*
X203800000Y-84270000D02*
G75*
G02*
X208800000Y-84270000I2500000J0D01*
G01*
%TO.C,U3*%
X159010000Y-86310000D02*
X159010000Y-87960000D01*
X159010000Y-89960000D02*
X159010000Y-91610000D01*
X159010000Y-91610000D02*
X179450000Y-91610000D01*
X179450000Y-86310000D02*
X159010000Y-86310000D01*
X179450000Y-91610000D02*
X179450000Y-86310000D01*
X159010000Y-87960000D02*
G75*
G02*
X159010000Y-89960000I0J-1000000D01*
G01*
%TO.C,J4*%
X171320000Y-102270000D02*
X171320000Y-105030000D01*
X184130000Y-102270000D02*
X171320000Y-102270000D01*
X184130000Y-102270000D02*
X184130000Y-105030000D01*
X184130000Y-105030000D02*
X171320000Y-105030000D01*
X185400000Y-102270000D02*
X186780000Y-102270000D01*
X186780000Y-102270000D02*
X186780000Y-103650000D01*
%TO.C,J3*%
X71140000Y-104140000D02*
X85640000Y-104140000D01*
X71140000Y-113340000D02*
X71140000Y-104140000D01*
X79740000Y-113340000D02*
X71140000Y-113340000D01*
X85640000Y-104140000D02*
X85640000Y-106140000D01*
X85640000Y-111340000D02*
X85640000Y-113340000D01*
X85640000Y-113340000D02*
X84340000Y-113340000D01*
X85940000Y-103840000D02*
X84640000Y-103840000D01*
X85940000Y-105540000D02*
X85940000Y-103840000D01*
%TD*%
M02*
