%TF.GenerationSoftware,KiCad,Pcbnew,9.0.5*%
%TF.CreationDate,2026-02-26T11:59:15-08:00*%
%TF.ProjectId,Mitchel_Ezekiel_Robot,4d697463-6865-46c5-9f45-7a656b69656c,rev?*%
%TF.SameCoordinates,Original*%
%TF.FileFunction,Soldermask,Top*%
%TF.FilePolarity,Negative*%
%FSLAX46Y46*%
G04 Gerber Fmt 4.6, Leading zero omitted, Abs format (unit mm)*
G04 Created by KiCad (PCBNEW 9.0.5) date 2026-02-26 11:59:15*
%MOMM*%
%LPD*%
G01*
G04 APERTURE LIST*
G04 Aperture macros list*
%AMRoundRect*
0 Rectangle with rounded corners*
0 $1 Rounding radius*
0 $2 $3 $4 $5 $6 $7 $8 $9 X,Y pos of 4 corners*
0 Add a 4 corners polygon primitive as box body*
4,1,4,$2,$3,$4,$5,$6,$7,$8,$9,$2,$3,0*
0 Add four circle primitives for the rounded corners*
1,1,$1+$1,$2,$3*
1,1,$1+$1,$4,$5*
1,1,$1+$1,$6,$7*
1,1,$1+$1,$8,$9*
0 Add four rect primitives between the rounded corners*
20,1,$1+$1,$2,$3,$4,$5,0*
20,1,$1+$1,$4,$5,$6,$7,0*
20,1,$1+$1,$6,$7,$8,$9,0*
20,1,$1+$1,$8,$9,$2,$3,0*%
G04 Aperture macros list end*
%ADD10C,1.600000*%
%ADD11R,1.800000X1.800000*%
%ADD12C,1.800000*%
%ADD13C,4.000000*%
%ADD14C,2.400000*%
%ADD15R,1.700000X1.700000*%
%ADD16C,1.700000*%
%ADD17R,2.000000X2.000000*%
%ADD18C,2.000000*%
%ADD19R,1.000000X1.000000*%
%ADD20C,1.000000*%
%ADD21RoundRect,0.102000X-0.704000X0.704000X-0.704000X-0.704000X0.704000X-0.704000X0.704000X0.704000X0*%
%ADD22C,1.612000*%
%ADD23C,2.540000*%
%ADD24RoundRect,0.250000X0.550000X-0.550000X0.550000X0.550000X-0.550000X0.550000X-0.550000X-0.550000X0*%
%ADD25R,2.000000X4.600000*%
%ADD26O,2.000000X4.200000*%
%ADD27O,4.200000X2.000000*%
G04 APERTURE END LIST*
D10*
%TO.C,R6*%
X121985000Y-61540000D03*
X124525000Y-61540000D03*
%TD*%
D11*
%TO.C,D4*%
X80980000Y-125100000D03*
D12*
X83520000Y-125100000D03*
%TD*%
D10*
%TO.C,C4*%
X167280000Y-96650000D03*
X172280000Y-96650000D03*
%TD*%
D11*
%TO.C,D2*%
X206300000Y-91000000D03*
D12*
X206300000Y-93540000D03*
%TD*%
D10*
%TO.C,R1*%
X86920000Y-120250000D03*
X89460000Y-120250000D03*
%TD*%
D11*
%TO.C,D5*%
X194831000Y-70020000D03*
D12*
X197371000Y-70020000D03*
%TD*%
D10*
%TO.C,R3*%
X195025000Y-83140000D03*
X197565000Y-83140000D03*
%TD*%
%TO.C,C5*%
X172280000Y-81670000D03*
X167280000Y-81670000D03*
%TD*%
D13*
%TO.C,REF\u002A\u002A*%
X120220000Y-89920000D03*
X82220000Y-89920000D03*
%TD*%
D14*
%TO.C,SW1*%
X89090000Y-107330000D03*
X89090000Y-112630000D03*
%TD*%
D15*
%TO.C,J6*%
X189250000Y-86000000D03*
D16*
X189250000Y-88540000D03*
X189250000Y-91080000D03*
X189250000Y-93620000D03*
%TD*%
D17*
%TO.C,HORN1*%
X110180000Y-63850000D03*
D18*
X105180000Y-63850000D03*
%TD*%
D19*
%TO.C,J7*%
X108520000Y-108770000D03*
D20*
X107250000Y-108770000D03*
X108520000Y-107500000D03*
X107250000Y-107500000D03*
X108520000Y-106230000D03*
X107250000Y-106230000D03*
%TD*%
D11*
%TO.C,D1*%
X86600000Y-125190000D03*
D12*
X89140000Y-125190000D03*
%TD*%
D10*
%TO.C,R7*%
X124240000Y-66060000D03*
X121700000Y-66060000D03*
%TD*%
%TO.C,R2*%
X194915000Y-93710000D03*
X197455000Y-93710000D03*
%TD*%
%TO.C,R5*%
X194855000Y-98230000D03*
X197395000Y-98230000D03*
%TD*%
%TO.C,C3*%
X182680000Y-91630000D03*
X182680000Y-86630000D03*
%TD*%
%TO.C,C2*%
X73160000Y-72420000D03*
X78160000Y-72420000D03*
%TD*%
%TO.C,C1*%
X150630000Y-78710000D03*
X150630000Y-83710000D03*
%TD*%
D21*
%TO.C,U1*%
X118910000Y-76420000D03*
D22*
X116370000Y-76420000D03*
X113830000Y-76420000D03*
X111290000Y-76420000D03*
X108750000Y-76420000D03*
X106210000Y-76420000D03*
X103670000Y-76420000D03*
X101130000Y-76420000D03*
X98590000Y-76420000D03*
X96050000Y-76420000D03*
X93510000Y-76420000D03*
X90970000Y-76420000D03*
X88430000Y-76420000D03*
X85890000Y-76420000D03*
X83350000Y-76420000D03*
X80810000Y-76420000D03*
X78270000Y-76420000D03*
X75730000Y-76420000D03*
X73190000Y-76420000D03*
X118910000Y-101820000D03*
X116370000Y-101820000D03*
X113830000Y-101820000D03*
X111290000Y-101820000D03*
X108750000Y-101820000D03*
X106210000Y-101820000D03*
X103670000Y-101820000D03*
X101130000Y-101820000D03*
X98590000Y-101820000D03*
X96050000Y-101820000D03*
X93510000Y-101820000D03*
X90970000Y-101820000D03*
X88430000Y-101820000D03*
X85890000Y-101820000D03*
X83350000Y-101820000D03*
X80810000Y-101820000D03*
X78270000Y-101820000D03*
X75730000Y-101820000D03*
X73190000Y-101820000D03*
%TD*%
D11*
%TO.C,D6*%
X194811000Y-110060000D03*
D12*
X197351000Y-110060000D03*
%TD*%
D11*
%TO.C,D3*%
X81180000Y-60050000D03*
D12*
X83720000Y-60050000D03*
%TD*%
D23*
%TO.C,J5*%
X169060000Y-70251000D03*
X189126000Y-70251000D03*
D15*
X172690000Y-76185000D03*
D16*
X175230000Y-76185000D03*
X177770000Y-76185000D03*
X180310000Y-76185000D03*
X182850000Y-76185000D03*
X185390000Y-76185000D03*
%TD*%
D10*
%TO.C,R4*%
X81105000Y-120240000D03*
X83645000Y-120240000D03*
%TD*%
D19*
%TO.C,J1*%
X82150000Y-68890000D03*
D20*
X82150000Y-67620000D03*
X83420000Y-68890000D03*
X83420000Y-67620000D03*
X84690000Y-68890000D03*
X84690000Y-67620000D03*
X85960000Y-68890000D03*
X85960000Y-67620000D03*
X87230000Y-68890000D03*
X87230000Y-67620000D03*
%TD*%
D10*
%TO.C,C7*%
X193470000Y-88170000D03*
X198470000Y-88170000D03*
%TD*%
D15*
%TO.C,J2*%
X145190000Y-78790000D03*
D16*
X145190000Y-81330000D03*
X145190000Y-83870000D03*
X145190000Y-86410000D03*
X145190000Y-88950000D03*
X145190000Y-91490000D03*
X145190000Y-94030000D03*
X145190000Y-96570000D03*
X145190000Y-99110000D03*
%TD*%
D10*
%TO.C,C6*%
X184370000Y-81470000D03*
X189370000Y-81470000D03*
%TD*%
D11*
%TO.C,Q1*%
X206300000Y-83000000D03*
D12*
X206300000Y-85540000D03*
%TD*%
D24*
%TO.C,U3*%
X160340000Y-92770000D03*
D10*
X162880000Y-92770000D03*
X165420000Y-92770000D03*
X167960000Y-92770000D03*
X170500000Y-92770000D03*
X173040000Y-92770000D03*
X175580000Y-92770000D03*
X178120000Y-92770000D03*
X178120000Y-85150000D03*
X175580000Y-85150000D03*
X173040000Y-85150000D03*
X170500000Y-85150000D03*
X167960000Y-85150000D03*
X165420000Y-85150000D03*
X162880000Y-85150000D03*
X160340000Y-85150000D03*
%TD*%
D23*
%TO.C,J4*%
X189030000Y-109584000D03*
X168964000Y-109584000D03*
D15*
X185400000Y-103650000D03*
D16*
X182860000Y-103650000D03*
X180320000Y-103650000D03*
X177780000Y-103650000D03*
X175240000Y-103650000D03*
X172700000Y-103650000D03*
%TD*%
D25*
%TO.C,J3*%
X84940000Y-108740000D03*
D26*
X78640000Y-108740000D03*
D27*
X82040000Y-113540000D03*
%TD*%
M02*
