%TF.GenerationSoftware,KiCad,Pcbnew,9.0.5*%
%TF.CreationDate,2026-02-26T11:59:15-08:00*%
%TF.ProjectId,Mitchel_Ezekiel_Robot,4d697463-6865-46c5-9f45-7a656b69656c,rev?*%
%TF.SameCoordinates,Original*%
%TF.FileFunction,Copper,L1,Top*%
%TF.FilePolarity,Positive*%
%FSLAX46Y46*%
G04 Gerber Fmt 4.6, Leading zero omitted, Abs format (unit mm)*
G04 Created by KiCad (PCBNEW 9.0.5) date 2026-02-26 11:59:15*
%MOMM*%
%LPD*%
G01*
G04 APERTURE LIST*
G04 Aperture macros list*
%AMRoundRect*
0 Rectangle with rounded corners*
0 $1 Rounding radius*
0 $2 $3 $4 $5 $6 $7 $8 $9 X,Y pos of 4 corners*
0 Add a 4 corners polygon primitive as box body*
4,1,4,$2,$3,$4,$5,$6,$7,$8,$9,$2,$3,0*
0 Add four circle primitives for the rounded corners*
1,1,$1+$1,$2,$3*
1,1,$1+$1,$4,$5*
1,1,$1+$1,$6,$7*
1,1,$1+$1,$8,$9*
0 Add four rect primitives between the rounded corners*
20,1,$1+$1,$2,$3,$4,$5,0*
20,1,$1+$1,$4,$5,$6,$7,0*
20,1,$1+$1,$6,$7,$8,$9,0*
20,1,$1+$1,$8,$9,$2,$3,0*%
G04 Aperture macros list end*
%TA.AperFunction,ComponentPad*%
%ADD10C,1.600000*%
%TD*%
%TA.AperFunction,ComponentPad*%
%ADD11R,1.800000X1.800000*%
%TD*%
%TA.AperFunction,ComponentPad*%
%ADD12C,1.800000*%
%TD*%
%TA.AperFunction,ComponentPad*%
%ADD13C,2.400000*%
%TD*%
%TA.AperFunction,ComponentPad*%
%ADD14R,1.700000X1.700000*%
%TD*%
%TA.AperFunction,ComponentPad*%
%ADD15C,1.700000*%
%TD*%
%TA.AperFunction,ComponentPad*%
%ADD16R,2.000000X2.000000*%
%TD*%
%TA.AperFunction,ComponentPad*%
%ADD17C,2.000000*%
%TD*%
%TA.AperFunction,ComponentPad*%
%ADD18R,1.000000X1.000000*%
%TD*%
%TA.AperFunction,ComponentPad*%
%ADD19C,1.000000*%
%TD*%
%TA.AperFunction,ComponentPad*%
%ADD20R,1.408000X1.408000*%
%TD*%
%TA.AperFunction,ComponentPad*%
%ADD21C,1.408000*%
%TD*%
%TA.AperFunction,ComponentPad*%
%ADD22RoundRect,0.250000X0.550000X-0.550000X0.550000X0.550000X-0.550000X0.550000X-0.550000X-0.550000X0*%
%TD*%
%TA.AperFunction,ComponentPad*%
%ADD23R,2.000000X4.600000*%
%TD*%
%TA.AperFunction,ComponentPad*%
%ADD24O,2.000000X4.200000*%
%TD*%
%TA.AperFunction,ComponentPad*%
%ADD25O,4.200000X2.000000*%
%TD*%
%TA.AperFunction,ViaPad*%
%ADD26C,0.600000*%
%TD*%
%TA.AperFunction,Conductor*%
%ADD27C,0.200000*%
%TD*%
%TA.AperFunction,Conductor*%
%ADD28C,0.100000*%
%TD*%
G04 APERTURE END LIST*
D10*
%TO.P,R6,1*%
%TO.N,+3V3*%
X121985000Y-61540000D03*
%TO.P,R6,2*%
%TO.N,/DAYNIGHT*%
X124525000Y-61540000D03*
%TD*%
D11*
%TO.P,D4,1,K*%
%TO.N,Net-(D3-K)*%
X80980000Y-125100000D03*
D12*
%TO.P,D4,2,A*%
%TO.N,/REARLAMPS*%
X83520000Y-125100000D03*
%TD*%
D10*
%TO.P,C4,1*%
%TO.N,Net-(J4-Pin_1)*%
X167280000Y-96650000D03*
%TO.P,C4,2*%
%TO.N,Net-(J4-Pin_2)*%
X172280000Y-96650000D03*
%TD*%
D11*
%TO.P,D2,1,K*%
%TO.N,GND*%
X206300000Y-91000000D03*
D12*
%TO.P,D2,2,A*%
%TO.N,Net-(D2-A)*%
X206300000Y-93540000D03*
%TD*%
D10*
%TO.P,R1,1*%
%TO.N,+BATT*%
X86920000Y-120250000D03*
%TO.P,R1,2*%
%TO.N,Net-(D1-A)*%
X89460000Y-120250000D03*
%TD*%
D11*
%TO.P,D5,1,K*%
%TO.N,Net-(D5-K)*%
X194831000Y-70020000D03*
D12*
%TO.P,D5,2,A*%
%TO.N,/FRONTLAMPS*%
X197371000Y-70020000D03*
%TD*%
D10*
%TO.P,R3,1*%
%TO.N,+3V3*%
X195025000Y-83140000D03*
%TO.P,R3,2*%
%TO.N,/PHOTOTRANS*%
X197565000Y-83140000D03*
%TD*%
%TO.P,C5,1*%
%TO.N,Net-(J5-Pin_1)*%
X172280000Y-81670000D03*
%TO.P,C5,2*%
%TO.N,Net-(J5-Pin_2)*%
X167280000Y-81670000D03*
%TD*%
D13*
%TO.P,SW1,1,A*%
%TO.N,Net-(SW1-A)*%
X89090000Y-107330000D03*
%TO.P,SW1,2,B*%
%TO.N,+BATT*%
X89090000Y-112630000D03*
%TD*%
D14*
%TO.P,J6,1,Pin_1*%
%TO.N,+3V3*%
X189250000Y-86000000D03*
D15*
%TO.P,J6,2,Pin_2*%
%TO.N,/TRIG*%
X189250000Y-88540000D03*
%TO.P,J6,3,Pin_3*%
%TO.N,/ECHO*%
X189250000Y-91080000D03*
%TO.P,J6,4,Pin_4*%
%TO.N,GND*%
X189250000Y-93620000D03*
%TD*%
D16*
%TO.P,HORN1,1,+*%
%TO.N,/HORN*%
X110180000Y-63850000D03*
D17*
%TO.P,HORN1,2,-*%
%TO.N,GND*%
X105180000Y-63850000D03*
%TD*%
D18*
%TO.P,J7,1,Pin_1*%
%TO.N,/RESET*%
X108520000Y-108770000D03*
D19*
%TO.P,J7,2,Pin_2*%
%TO.N,+3V3*%
X107250000Y-108770000D03*
%TO.P,J7,3,Pin_3*%
%TO.N,/TXD*%
X108520000Y-107500000D03*
%TO.P,J7,4,Pin_4*%
%TO.N,GND*%
X107250000Y-107500000D03*
%TO.P,J7,5,Pin_5*%
%TO.N,/RXD*%
X108520000Y-106230000D03*
%TO.P,J7,6,Pin_6*%
%TO.N,unconnected-(J7-Pin_6-Pad6)*%
X107250000Y-106230000D03*
%TD*%
D11*
%TO.P,D1,1,K*%
%TO.N,GND*%
X86600000Y-125190000D03*
D12*
%TO.P,D1,2,A*%
%TO.N,Net-(D1-A)*%
X89140000Y-125190000D03*
%TD*%
D10*
%TO.P,R7,1*%
%TO.N,/DAYNIGHT*%
X124240000Y-66060000D03*
%TO.P,R7,2*%
%TO.N,GND*%
X121700000Y-66060000D03*
%TD*%
%TO.P,R2,1*%
%TO.N,+3V3*%
X194915000Y-93710000D03*
%TO.P,R2,2*%
%TO.N,Net-(D2-A)*%
X197455000Y-93710000D03*
%TD*%
%TO.P,R5,1*%
%TO.N,Net-(D5-K)*%
X194855000Y-98230000D03*
%TO.P,R5,2*%
%TO.N,GND*%
X197395000Y-98230000D03*
%TD*%
%TO.P,C3,1*%
%TO.N,+BATT*%
X182680000Y-91630000D03*
%TO.P,C3,2*%
%TO.N,GND*%
X182680000Y-86630000D03*
%TD*%
%TO.P,C2,1*%
%TO.N,+BATT*%
X73160000Y-72420000D03*
%TO.P,C2,2*%
%TO.N,GND*%
X78160000Y-72420000D03*
%TD*%
%TO.P,C1,1*%
%TO.N,+3V3*%
X150630000Y-78710000D03*
%TO.P,C1,2*%
%TO.N,GND*%
X150630000Y-83710000D03*
%TD*%
D20*
%TO.P,U1,J2_1,3V3*%
%TO.N,+3V3*%
X118910000Y-76420000D03*
D21*
%TO.P,U1,J2_2,CHIP_PU\u002C_Reset*%
%TO.N,/RESET*%
X116370000Y-76420000D03*
%TO.P,U1,J2_3,GPIO36\u002C_ADC1_CH0\u002C_S_VP*%
%TO.N,/RENCODER_A*%
X113830000Y-76420000D03*
%TO.P,U1,J2_4,GPIO39\u002C_ADC1_CH3\u002C_S_VN*%
%TO.N,/RENCODER_B*%
X111290000Y-76420000D03*
%TO.P,U1,J2_5,GPIO34\u002C_ADC1_CH6\u002C_VDET_1*%
%TO.N,/LENCODER_A*%
X108750000Y-76420000D03*
%TO.P,U1,J2_6,GPIO35\u002C_ADC1_CH7\u002C_VDET_2*%
%TO.N,/LENCODER_B*%
X106210000Y-76420000D03*
%TO.P,U1,J2_7,GPIO32\u002C_ADC1_CH4\u002C_TOUCH_CH9*%
%TO.N,/PHOTOTRANS*%
X103670000Y-76420000D03*
%TO.P,U1,J2_8,GPIO33\u002C_ADC1_CH5\u002C_TOUCH_CH8*%
%TO.N,/DAYNIGHT*%
X101130000Y-76420000D03*
%TO.P,U1,J2_9,GPIO25\u002C_ADC1_CH8\u002C_DAC_1*%
%TO.N,/LPWM_3A4A*%
X98590000Y-76420000D03*
%TO.P,U1,J2_10,GPIO26\u002C_ADC2_CH9\u002C_DAC_2*%
%TO.N,/RPWM_1A2A*%
X96050000Y-76420000D03*
%TO.P,U1,J2_11,GPIO27\u002C_ADC2_CH7\u002C_TOUCH_CH7*%
%TO.N,/ECHO*%
X93510000Y-76420000D03*
%TO.P,U1,J2_12,GPIO14\u002C_ADC2_CH6\u002C_TOUCH_CH6\u002C_MTMS*%
%TO.N,/JTAG_MTMS*%
X90970000Y-76420000D03*
%TO.P,U1,J2_13,GPIO12\u002C_ADC2_CH5\u002C_TOUCH_CH5\u002C_MTDI*%
%TO.N,/JTAG_MTDI*%
X88430000Y-76420000D03*
%TO.P,U1,J2_14,GND*%
%TO.N,GND*%
X85890000Y-76420000D03*
%TO.P,U1,J2_15,GPIO13\u002C_ADC2_CH4\u002C_TOUCH_CH4\u002C_MTCK*%
%TO.N,/JTAG_MTCK*%
X83350000Y-76420000D03*
%TO.P,U1,J2_16,GPIO9\u002C_D2*%
%TO.N,unconnected-(U1-GPIO9\u002C_D2-PadJ2_16)*%
X80810000Y-76420000D03*
%TO.P,U1,J2_17,GPIO10\u002C_D3*%
%TO.N,unconnected-(U1-GPIO10\u002C_D3-PadJ2_17)*%
X78270000Y-76420000D03*
%TO.P,U1,J2_18,GPIO11\u002C_CMD*%
%TO.N,unconnected-(U1-GPIO11\u002C_CMD-PadJ2_18)*%
X75730000Y-76420000D03*
%TO.P,U1,J2_19,EXT_5V*%
%TO.N,+BATT*%
X73190000Y-76420000D03*
%TO.P,U1,J3_1,GND*%
%TO.N,GND*%
X118910000Y-101820000D03*
%TO.P,U1,J3_2,GPIO23*%
%TO.N,/GPS_RX*%
X116370000Y-101820000D03*
%TO.P,U1,J3_3,GPIO22*%
%TO.N,/GPS_TX*%
X113830000Y-101820000D03*
%TO.P,U1,J3_4,GPIO1\u002C_U0TXD*%
%TO.N,/RXD*%
X111290000Y-101820000D03*
%TO.P,U1,J3_5,GPIO3\u002C_U0RXD*%
%TO.N,/TXD*%
X108750000Y-101820000D03*
%TO.P,U1,J3_6,GPIO21*%
%TO.N,/HORN*%
X106210000Y-101820000D03*
%TO.P,U1,J3_7,GND*%
%TO.N,GND*%
X103670000Y-101820000D03*
%TO.P,U1,J3_8,GPIO19*%
%TO.N,/RMOTOR_2A*%
X101130000Y-101820000D03*
%TO.P,U1,J3_9,GPIO18*%
%TO.N,/RMOTOR_1A*%
X98590000Y-101820000D03*
%TO.P,U1,J3_10,GPIO5*%
%TO.N,unconnected-(U1-GPIO5-PadJ3_10)*%
X96050000Y-101820000D03*
%TO.P,U1,J3_11,GPIO17*%
%TO.N,/LMOTOR_4A*%
X93510000Y-101820000D03*
%TO.P,U1,J3_12,GPIO16*%
%TO.N,/LMOTOR_3A*%
X90970000Y-101820000D03*
%TO.P,U1,J3_13,GPIO4\u002C_ADC2_CH0\u002C_TOUCH_CH0*%
%TO.N,/TRIG*%
X88430000Y-101820000D03*
%TO.P,U1,J3_14,GPIO0\u002C_ADC2_CH1\u002C_TOUCH_CH1\u002C_Boot*%
%TO.N,/REARLAMPS*%
X85890000Y-101820000D03*
%TO.P,U1,J3_15,GPIO2\u002C_ADC2_CH2\u002C_TOUCH_CH2*%
%TO.N,/FRONTLAMPS*%
X83350000Y-101820000D03*
%TO.P,U1,J3_16,GPIO15\u002C_ADC2_CH3\u002C_TOUCH_CH3\u002C_MTDO*%
%TO.N,/JTAG_MTDO*%
X80810000Y-101820000D03*
%TO.P,U1,J3_17,GPIO8\u002C_D1*%
%TO.N,unconnected-(U1-GPIO8\u002C_D1-PadJ3_17)*%
X78270000Y-101820000D03*
%TO.P,U1,J3_18,GPIO7\u002C_D0*%
%TO.N,unconnected-(U1-GPIO7\u002C_D0-PadJ3_18)*%
X75730000Y-101820000D03*
%TO.P,U1,J3_19,GPIO6\u002C_CLK*%
%TO.N,unconnected-(U1-GPIO6\u002C_CLK-PadJ3_19)*%
X73190000Y-101820000D03*
%TD*%
D11*
%TO.P,D6,1,K*%
%TO.N,Net-(D5-K)*%
X194811000Y-110060000D03*
D12*
%TO.P,D6,2,A*%
%TO.N,/FRONTLAMPS*%
X197351000Y-110060000D03*
%TD*%
D11*
%TO.P,D3,1,K*%
%TO.N,Net-(D3-K)*%
X81180000Y-60050000D03*
D12*
%TO.P,D3,2,A*%
%TO.N,/REARLAMPS*%
X83720000Y-60050000D03*
%TD*%
D14*
%TO.P,J5,1,Pin_1*%
%TO.N,Net-(J5-Pin_1)*%
X172690000Y-76185000D03*
D15*
%TO.P,J5,2,Pin_2*%
%TO.N,Net-(J5-Pin_2)*%
X175230000Y-76185000D03*
%TO.P,J5,3,Pin_3*%
%TO.N,+BATT*%
X177770000Y-76185000D03*
%TO.P,J5,4,Pin_4*%
%TO.N,/LENCODER_A*%
X180310000Y-76185000D03*
%TO.P,J5,5,Pin_5*%
%TO.N,/LENCODER_B*%
X182850000Y-76185000D03*
%TO.P,J5,6,Pin_6*%
%TO.N,GND*%
X185390000Y-76185000D03*
%TD*%
D10*
%TO.P,R4,1*%
%TO.N,Net-(D3-K)*%
X81105000Y-120240000D03*
%TO.P,R4,2*%
%TO.N,GND*%
X83645000Y-120240000D03*
%TD*%
D18*
%TO.P,J1,1,Pin_1*%
%TO.N,+3V3*%
X82150000Y-68890000D03*
D19*
%TO.P,J1,2,Pin_2*%
%TO.N,/JTAG_MTMS*%
X82150000Y-67620000D03*
%TO.P,J1,3,Pin_3*%
%TO.N,GND*%
X83420000Y-68890000D03*
%TO.P,J1,4,Pin_4*%
%TO.N,/JTAG_MTCK*%
X83420000Y-67620000D03*
%TO.P,J1,5,Pin_5*%
%TO.N,GND*%
X84690000Y-68890000D03*
%TO.P,J1,6,Pin_6*%
%TO.N,/JTAG_MTDO*%
X84690000Y-67620000D03*
%TO.P,J1,7,Pin_7*%
%TO.N,GND*%
X85960000Y-68890000D03*
%TO.P,J1,8,Pin_8*%
%TO.N,/JTAG_MTDI*%
X85960000Y-67620000D03*
%TO.P,J1,9,Pin_9*%
%TO.N,GND*%
X87230000Y-68890000D03*
%TO.P,J1,10,Pin_10*%
%TO.N,unconnected-(J1-Pin_10-Pad10)*%
X87230000Y-67620000D03*
%TD*%
D10*
%TO.P,C7,1*%
%TO.N,+3V3*%
X193470000Y-88170000D03*
%TO.P,C7,2*%
%TO.N,GND*%
X198470000Y-88170000D03*
%TD*%
D14*
%TO.P,J2,1,Pin_1*%
%TO.N,+3V3*%
X145190000Y-78790000D03*
D15*
%TO.P,J2,2,Pin_2*%
%TO.N,unconnected-(J2-Pin_2-Pad2)*%
X145190000Y-81330000D03*
%TO.P,J2,3,Pin_3*%
%TO.N,unconnected-(J2-Pin_3-Pad3)*%
X145190000Y-83870000D03*
%TO.P,J2,4,Pin_4*%
%TO.N,unconnected-(J2-Pin_4-Pad4)*%
X145190000Y-86410000D03*
%TO.P,J2,5,Pin_5*%
%TO.N,/GPS_TX*%
X145190000Y-88950000D03*
%TO.P,J2,6,Pin_6*%
%TO.N,/GPS_RX*%
X145190000Y-91490000D03*
%TO.P,J2,7,Pin_7*%
%TO.N,GND*%
X145190000Y-94030000D03*
%TO.P,J2,8,Pin_8*%
%TO.N,unconnected-(J2-Pin_8-Pad8)*%
X145190000Y-96570000D03*
%TO.P,J2,9,Pin_9*%
%TO.N,unconnected-(J2-Pin_9-Pad9)*%
X145190000Y-99110000D03*
%TD*%
D10*
%TO.P,C6,1*%
%TO.N,GND*%
X184370000Y-81470000D03*
%TO.P,C6,2*%
%TO.N,+3V3*%
X189370000Y-81470000D03*
%TD*%
D11*
%TO.P,Q1,1,C*%
%TO.N,/PHOTOTRANS*%
X206300000Y-83000000D03*
D12*
%TO.P,Q1,2,E*%
%TO.N,GND*%
X206300000Y-85540000D03*
%TD*%
D22*
%TO.P,U3,1,EN1\u002C2*%
%TO.N,/RPWM_1A2A*%
X160340000Y-92770000D03*
D10*
%TO.P,U3,2,1A*%
%TO.N,/RMOTOR_1A*%
X162880000Y-92770000D03*
%TO.P,U3,3,1Y*%
%TO.N,Net-(J4-Pin_1)*%
X165420000Y-92770000D03*
%TO.P,U3,4,GND*%
%TO.N,GND*%
X167960000Y-92770000D03*
%TO.P,U3,5,GND*%
X170500000Y-92770000D03*
%TO.P,U3,6,2Y*%
%TO.N,Net-(J4-Pin_2)*%
X173040000Y-92770000D03*
%TO.P,U3,7,2A*%
%TO.N,/RMOTOR_2A*%
X175580000Y-92770000D03*
%TO.P,U3,8,VCC2*%
%TO.N,+BATT*%
X178120000Y-92770000D03*
%TO.P,U3,9,EN3\u002C4*%
%TO.N,/LPWM_3A4A*%
X178120000Y-85150000D03*
%TO.P,U3,10,3A*%
%TO.N,/LMOTOR_3A*%
X175580000Y-85150000D03*
%TO.P,U3,11,3Y*%
%TO.N,Net-(J5-Pin_1)*%
X173040000Y-85150000D03*
%TO.P,U3,12,GND*%
%TO.N,GND*%
X170500000Y-85150000D03*
%TO.P,U3,13,GND*%
X167960000Y-85150000D03*
%TO.P,U3,14,4Y*%
%TO.N,Net-(J5-Pin_2)*%
X165420000Y-85150000D03*
%TO.P,U3,15,4A*%
%TO.N,/LMOTOR_4A*%
X162880000Y-85150000D03*
%TO.P,U3,16,VCC1*%
%TO.N,+BATT*%
X160340000Y-85150000D03*
%TD*%
D14*
%TO.P,J4,1,Pin_1*%
%TO.N,Net-(J4-Pin_1)*%
X185400000Y-103650000D03*
D15*
%TO.P,J4,2,Pin_2*%
%TO.N,Net-(J4-Pin_2)*%
X182860000Y-103650000D03*
%TO.P,J4,3,Pin_3*%
%TO.N,+BATT*%
X180320000Y-103650000D03*
%TO.P,J4,4,Pin_4*%
%TO.N,/RENCODER_A*%
X177780000Y-103650000D03*
%TO.P,J4,5,Pin_5*%
%TO.N,/RENCODER_B*%
X175240000Y-103650000D03*
%TO.P,J4,6,Pin_6*%
%TO.N,GND*%
X172700000Y-103650000D03*
%TD*%
D23*
%TO.P,J3,1*%
%TO.N,Net-(SW1-A)*%
X84940000Y-108740000D03*
D24*
%TO.P,J3,2*%
%TO.N,GND*%
X78640000Y-108740000D03*
D25*
%TO.P,J3,3*%
%TO.N,unconnected-(J3-Pad3)*%
X82040000Y-113540000D03*
%TD*%
D26*
%TO.N,/RENCODER_B*%
X202310000Y-82250000D03*
%TD*%
D27*
%TO.N,+3V3*%
X96161285Y-77730000D02*
X97055000Y-76836285D01*
X110870000Y-65630000D02*
X114960000Y-61540000D01*
X194915000Y-93710000D02*
X194915000Y-88000000D01*
X90542908Y-75425807D02*
X90553715Y-75415000D01*
X91386285Y-75415000D02*
X91975000Y-76003715D01*
X179327050Y-85500000D02*
X178576050Y-86251000D01*
X150710000Y-78790000D02*
X145190000Y-78790000D01*
X177663950Y-86251000D02*
X176681000Y-85268050D01*
X111706285Y-77425000D02*
X112128900Y-77002385D01*
X113413715Y-75415000D02*
X114246285Y-75415000D01*
X112128900Y-77002385D02*
X112680515Y-77002385D01*
X112680515Y-77002385D02*
X112835808Y-76847092D01*
X150790000Y-78710000D02*
X150710000Y-78790000D01*
X191420000Y-88170000D02*
X189250000Y-86000000D01*
X194745000Y-88170000D02*
X194915000Y-88000000D01*
X89564000Y-100186000D02*
X105750000Y-84000000D01*
X176681000Y-84693950D02*
X176036050Y-84049000D01*
X176681000Y-85268050D02*
X176681000Y-84693950D01*
X194915000Y-88000000D02*
X194915000Y-83250000D01*
X145190000Y-78790000D02*
X121280000Y-78790000D01*
X174141000Y-85606050D02*
X172497050Y-87250000D01*
X91975000Y-76836285D02*
X92638715Y-77500000D01*
X112825000Y-76836285D02*
X112825000Y-76003715D01*
X121280000Y-78790000D02*
X118910000Y-76420000D01*
X95480000Y-77500000D02*
X97040000Y-79060000D01*
X111070000Y-77650000D02*
X111070000Y-77621285D01*
X81354000Y-69686000D02*
X81354000Y-72469800D01*
X89216100Y-74099000D02*
X90542908Y-75425807D01*
X189250000Y-81590000D02*
X189370000Y-81470000D01*
X176036050Y-84049000D02*
X174785950Y-84049000D01*
X82983200Y-74099000D02*
X89216100Y-74099000D01*
X91975000Y-76003715D02*
X91975000Y-76836285D01*
X112835808Y-76847092D02*
X112825000Y-76836285D01*
X164250000Y-84962950D02*
X157997050Y-78710000D01*
X97055000Y-76836285D02*
X97055000Y-74940100D01*
X174785950Y-84049000D02*
X174141000Y-84693950D01*
X111070000Y-77621285D02*
X110873715Y-77425000D01*
X189250000Y-86000000D02*
X189250000Y-81590000D01*
X97040000Y-79060000D02*
X109660000Y-79060000D01*
X178576050Y-86251000D02*
X177663950Y-86251000D01*
X112825000Y-76003715D02*
X113413715Y-75415000D01*
X110873715Y-77425000D02*
X111706285Y-77425000D01*
X105750000Y-84000000D02*
X111817100Y-84000000D01*
X157997050Y-78710000D02*
X150630000Y-78710000D01*
X95990000Y-77730000D02*
X96161285Y-77730000D01*
X114305643Y-75474357D02*
X114370000Y-75410000D01*
X185340000Y-85500000D02*
X179327050Y-85500000D01*
X114246285Y-75415000D02*
X114305643Y-75474357D01*
X189370000Y-81470000D02*
X185340000Y-85500000D01*
X114960000Y-61540000D02*
X121985000Y-61540000D01*
X117900000Y-75410000D02*
X118910000Y-76420000D01*
X109660000Y-79060000D02*
X111070000Y-77650000D01*
X193470000Y-88170000D02*
X191420000Y-88170000D01*
X194915000Y-83250000D02*
X195025000Y-83140000D01*
X174141000Y-84693950D02*
X174141000Y-85606050D01*
X92638715Y-77500000D02*
X95480000Y-77500000D01*
X164250000Y-87250000D02*
X164250000Y-84962950D01*
X95931615Y-108770000D02*
X89564000Y-102402385D01*
X82150000Y-68890000D02*
X81354000Y-69686000D01*
X118910000Y-76907100D02*
X118910000Y-76420000D01*
X172497050Y-87250000D02*
X164250000Y-87250000D01*
X97055000Y-74940100D02*
X106365100Y-65630000D01*
X81354000Y-72469800D02*
X82983200Y-74099000D01*
X107250000Y-108770000D02*
X95931615Y-108770000D01*
X150630000Y-78710000D02*
X150790000Y-78710000D01*
X89564000Y-102402385D02*
X89564000Y-100186000D01*
X111817100Y-84000000D02*
X118910000Y-76907100D01*
X106365100Y-65630000D02*
X110870000Y-65630000D01*
X114370000Y-75410000D02*
X117900000Y-75410000D01*
X90553715Y-75415000D02*
X91386285Y-75415000D01*
X193470000Y-88170000D02*
X194745000Y-88170000D01*
%TO.N,+BATT*%
X189726760Y-89929000D02*
X162211000Y-89929000D01*
X160760000Y-91380000D02*
X159439000Y-91380000D01*
X74195000Y-101165000D02*
X73290000Y-100260000D01*
X191339000Y-81479000D02*
X191339000Y-82737100D01*
X192774860Y-94950000D02*
X192774860Y-92977100D01*
X71490000Y-129460000D02*
X71490000Y-66600000D01*
X191339000Y-82737100D02*
X191573900Y-82972000D01*
X82407100Y-100460000D02*
X82216000Y-100651100D01*
X75750000Y-110202000D02*
X82319000Y-116771000D01*
X174555000Y-111235000D02*
X95802100Y-111235000D01*
X76735000Y-71375000D02*
X76735000Y-76955000D01*
X159239000Y-86251000D02*
X160340000Y-85150000D01*
X84916100Y-130171000D02*
X72201000Y-130171000D01*
X195481000Y-82038950D02*
X196280000Y-82837950D01*
X192774860Y-92977100D02*
X189726760Y-89929000D01*
X75380000Y-70020000D02*
X76735000Y-71375000D01*
X85398000Y-121772000D02*
X85398000Y-129689100D01*
X79699650Y-129117450D02*
X79187450Y-129117450D01*
X89743550Y-105176450D02*
X87366450Y-105176450D01*
X75750000Y-100815000D02*
X76146285Y-100815000D01*
X82319000Y-126498100D02*
X79699650Y-129117450D01*
X83411285Y-100460000D02*
X82407100Y-100460000D01*
X86920000Y-114800000D02*
X89090000Y-112630000D01*
X192595100Y-82972000D02*
X193528150Y-82038950D01*
X73290000Y-100260000D02*
X73190000Y-100260000D01*
X75750000Y-102825000D02*
X75750000Y-110202000D01*
X85420000Y-59010000D02*
X85420000Y-61280000D01*
X86920000Y-120250000D02*
X85398000Y-121772000D01*
X176350000Y-91000000D02*
X163041000Y-91000000D01*
X186551000Y-101201000D02*
X186551000Y-104801000D01*
X82250000Y-55840000D02*
X85420000Y-59010000D01*
X73160000Y-76390000D02*
X73190000Y-76420000D01*
X76146285Y-100815000D02*
X76735000Y-101403715D01*
X178120000Y-92770000D02*
X176350000Y-91000000D01*
X195480000Y-94950000D02*
X192774860Y-94950000D01*
X86920000Y-120250000D02*
X86920000Y-114800000D01*
X85398000Y-129689100D02*
X84916100Y-130171000D01*
X73190000Y-100260000D02*
X73190000Y-76420000D01*
X181230000Y-104560000D02*
X180320000Y-103650000D01*
X181230000Y-104560000D02*
X174555000Y-111235000D01*
X159439000Y-91380000D02*
X159239000Y-91580000D01*
X178120000Y-92770000D02*
X186551000Y-101201000D01*
X82319000Y-116771000D02*
X82319000Y-126498100D01*
X84928000Y-112630000D02*
X89090000Y-112630000D01*
X161441000Y-93555160D02*
X161125160Y-93871000D01*
X180595000Y-79010000D02*
X188870000Y-79010000D01*
X193528150Y-82038950D02*
X195481000Y-82038950D01*
X161441000Y-92600000D02*
X161441000Y-93555160D01*
X177770000Y-76185000D02*
X180595000Y-79010000D01*
X196280000Y-94150000D02*
X195480000Y-94950000D01*
X82216000Y-100651100D02*
X82216000Y-109918000D01*
X185951000Y-105401000D02*
X182071000Y-105401000D01*
X76735000Y-76955000D02*
X75750000Y-77940000D01*
X191573900Y-82972000D02*
X192595100Y-82972000D01*
X182680000Y-91630000D02*
X179260000Y-91630000D01*
X159554840Y-93871000D02*
X159239000Y-93555160D01*
X75750000Y-77940000D02*
X75750000Y-100815000D01*
X163041000Y-91000000D02*
X161441000Y-92600000D01*
X76735000Y-101403715D02*
X76735000Y-102236285D01*
X95802100Y-111235000D02*
X89743550Y-105176450D01*
X76735000Y-102236285D02*
X76146285Y-102825000D01*
X159239000Y-93555160D02*
X159239000Y-91580000D01*
X82216000Y-109918000D02*
X84928000Y-112630000D01*
X196280000Y-82837950D02*
X196280000Y-94150000D01*
X74195000Y-124125000D02*
X74195000Y-101165000D01*
X179260000Y-91630000D02*
X178120000Y-92770000D01*
X186551000Y-104801000D02*
X185951000Y-105401000D01*
X161125160Y-93871000D02*
X159554840Y-93871000D01*
X72201000Y-130171000D02*
X71490000Y-129460000D01*
X76146285Y-102825000D02*
X75750000Y-102825000D01*
X188870000Y-79010000D02*
X191339000Y-81479000D01*
X84355000Y-101403715D02*
X83411285Y-100460000D01*
X83748000Y-61652000D02*
X75380000Y-70020000D01*
X79187450Y-129117450D02*
X74195000Y-124125000D01*
X84355000Y-102165000D02*
X84355000Y-101403715D01*
X73160000Y-72420000D02*
X73160000Y-76390000D01*
X87366450Y-105176450D02*
X84355000Y-102165000D01*
X85420000Y-61280000D02*
X85048000Y-61652000D01*
X182071000Y-105401000D02*
X181230000Y-104560000D01*
X85048000Y-61652000D02*
X83748000Y-61652000D01*
X71490000Y-66600000D02*
X82250000Y-55840000D01*
X162211000Y-89929000D02*
X160760000Y-91380000D01*
X159239000Y-91580000D02*
X159239000Y-86251000D01*
%TO.N,Net-(J4-Pin_1)*%
X175551000Y-97051000D02*
X173381000Y-97051000D01*
X182500000Y-105000000D02*
X181471000Y-103971000D01*
X181471000Y-103971000D02*
X181471000Y-103173240D01*
X180797760Y-102500000D02*
X180797760Y-102297760D01*
X171823950Y-97751000D02*
X171179000Y-97106050D01*
X172736050Y-97751000D02*
X171823950Y-97751000D01*
X185400000Y-103650000D02*
X184050000Y-105000000D01*
X171179000Y-96650000D02*
X167280000Y-96650000D01*
X165420000Y-92770000D02*
X165420000Y-94790000D01*
X171179000Y-97106050D02*
X171179000Y-96650000D01*
X184050000Y-105000000D02*
X182500000Y-105000000D01*
X173381000Y-97106050D02*
X172736050Y-97751000D01*
X165420000Y-94790000D02*
X167280000Y-96650000D01*
X180797760Y-102297760D02*
X175551000Y-97051000D01*
X181471000Y-103173240D02*
X180797760Y-102500000D01*
X173381000Y-97051000D02*
X173381000Y-97106050D01*
%TO.N,Net-(J4-Pin_2)*%
X173040000Y-95520000D02*
X173040000Y-92770000D01*
X182860000Y-103650000D02*
X175860000Y-96650000D01*
X172280000Y-96650000D02*
X172280000Y-96280000D01*
X175860000Y-96650000D02*
X172280000Y-96650000D01*
X172280000Y-96280000D02*
X173040000Y-95520000D01*
%TO.N,Net-(J5-Pin_2)*%
X165420000Y-83530000D02*
X167280000Y-81670000D01*
X165420000Y-85150000D02*
X165420000Y-83530000D01*
X171539000Y-75034000D02*
X174079000Y-75034000D01*
X167280000Y-79293000D02*
X171539000Y-75034000D01*
X167280000Y-81670000D02*
X167280000Y-79293000D01*
X174079000Y-75034000D02*
X175230000Y-76185000D01*
%TO.N,Net-(J5-Pin_1)*%
X172280000Y-82280000D02*
X173040000Y-83040000D01*
X172690000Y-76185000D02*
X172690000Y-81260000D01*
X173040000Y-83040000D02*
X173040000Y-85150000D01*
X172690000Y-81260000D02*
X172280000Y-81670000D01*
X172280000Y-81670000D02*
X172280000Y-82280000D01*
%TO.N,Net-(D1-A)*%
X89460000Y-124870000D02*
X89140000Y-125190000D01*
X89460000Y-120250000D02*
X89460000Y-124870000D01*
%TO.N,Net-(D2-A)*%
X197625000Y-93540000D02*
X197455000Y-93710000D01*
X206300000Y-93540000D02*
X197625000Y-93540000D01*
%TO.N,/REARLAMPS*%
X72185000Y-102236285D02*
X72250000Y-102301285D01*
X72250000Y-101338715D02*
X72185000Y-101403715D01*
X72250000Y-75938715D02*
X72185000Y-76003715D01*
X84746000Y-119783950D02*
X84500000Y-119537950D01*
X72059000Y-71963950D02*
X72059000Y-72876050D01*
X81800000Y-100900000D02*
X81815000Y-100900000D01*
X72250000Y-71520000D02*
X72250000Y-71772950D01*
X83720000Y-60050000D02*
X72250000Y-71520000D01*
X72250000Y-123970000D02*
X78050000Y-129770000D01*
X72250000Y-73067050D02*
X72250000Y-75938715D01*
X84500000Y-124750000D02*
X84500000Y-120942050D01*
X81815000Y-100915000D02*
X81800000Y-100900000D01*
X82241000Y-100059000D02*
X84129000Y-100059000D01*
X85875000Y-101525000D02*
X85875000Y-101820000D01*
X81815000Y-100900000D02*
X81815000Y-100485000D01*
X72250000Y-71772950D02*
X72059000Y-71963950D01*
X85875000Y-101820000D02*
X85890000Y-101820000D01*
X83520000Y-125100000D02*
X84650000Y-125100000D01*
X84500000Y-113000000D02*
X81815000Y-110315000D01*
X84750000Y-125000000D02*
X84500000Y-124750000D01*
X84500000Y-119537950D02*
X84500000Y-113000000D01*
X84129000Y-100059000D02*
X85890000Y-101820000D01*
X84746000Y-120696050D02*
X84746000Y-119783950D01*
X72185000Y-76836285D02*
X72250000Y-76901285D01*
X72185000Y-76003715D02*
X72185000Y-76836285D01*
X78050000Y-129770000D02*
X84750000Y-129770000D01*
X84500000Y-120942050D02*
X84746000Y-120696050D01*
X72250000Y-102301285D02*
X72250000Y-123970000D01*
X72185000Y-101403715D02*
X72185000Y-102236285D01*
X81815000Y-100485000D02*
X82241000Y-100059000D01*
X72250000Y-76901285D02*
X72250000Y-101338715D01*
X84650000Y-125100000D02*
X84750000Y-125000000D01*
X72059000Y-72876050D02*
X72250000Y-73067050D01*
X81815000Y-110315000D02*
X81815000Y-100915000D01*
X84750000Y-129770000D02*
X84750000Y-125000000D01*
%TO.N,Net-(D3-K)*%
X84217471Y-61251000D02*
X83222529Y-61251000D01*
X74725000Y-76003715D02*
X74725000Y-76836285D01*
X74770000Y-101358715D02*
X74725000Y-101403715D01*
X83154314Y-61182786D02*
X74770000Y-69567100D01*
X81180000Y-60050000D02*
X82381000Y-58849000D01*
X82381000Y-58849000D02*
X84217471Y-58849000D01*
X80980000Y-127270000D02*
X80980000Y-125100000D01*
X74770000Y-75958715D02*
X74725000Y-76003715D01*
X74770000Y-69567100D02*
X74770000Y-75958715D01*
X84921000Y-60547471D02*
X84217471Y-61251000D01*
X74725000Y-76836285D02*
X74770000Y-76881285D01*
X84217471Y-58849000D02*
X84921000Y-59552529D01*
X74770000Y-123952900D02*
X79533550Y-128716450D01*
X74725000Y-101403715D02*
X74725000Y-102236285D01*
X79533550Y-128716450D02*
X80980000Y-127270000D01*
X80980000Y-125100000D02*
X80980000Y-124770000D01*
X74725000Y-102236285D02*
X74770000Y-102281285D01*
X81105000Y-124645000D02*
X81105000Y-120240000D01*
X84921000Y-59552529D02*
X84921000Y-60547471D01*
X80980000Y-124770000D02*
X81105000Y-124645000D01*
X83222529Y-61251000D02*
X83154314Y-61182786D01*
X74770000Y-76881285D02*
X74770000Y-101358715D01*
X74770000Y-102281285D02*
X74770000Y-123952900D01*
%TO.N,/FRONTLAMPS*%
X197351000Y-110060000D02*
X194311000Y-113100000D01*
X197440000Y-110060000D02*
X197351000Y-110060000D01*
X209034000Y-81216900D02*
X197837100Y-70020000D01*
X209034000Y-97014365D02*
X209034000Y-81216900D01*
X87359000Y-105829000D02*
X83350000Y-101820000D01*
X197351000Y-110060000D02*
X197351000Y-108697365D01*
X89829000Y-105829000D02*
X87359000Y-105829000D01*
X197837100Y-70020000D02*
X197371000Y-70020000D01*
D28*
X194311000Y-113100000D02*
X97100000Y-113100000D01*
D27*
X97100000Y-113100000D02*
X89829000Y-105829000D01*
X197351000Y-108697365D02*
X209034000Y-97014365D01*
%TO.N,Net-(D5-K)*%
X196750000Y-71250000D02*
X198500000Y-71250000D01*
X208633000Y-96848265D02*
X195421265Y-110060000D01*
X194811000Y-98274000D02*
X194855000Y-98230000D01*
X194831000Y-70020000D02*
X195520000Y-70020000D01*
X208633000Y-81383000D02*
X208633000Y-96848265D01*
X195421265Y-110060000D02*
X194811000Y-110060000D01*
X195520000Y-70020000D02*
X196750000Y-71250000D01*
X198500000Y-71250000D02*
X208633000Y-81383000D01*
X194811000Y-110060000D02*
X194811000Y-98274000D01*
%TO.N,/JTAG_MTCK*%
X83367800Y-64052000D02*
X83198000Y-64052000D01*
X83420000Y-64104200D02*
X83367800Y-64052000D01*
X83198000Y-64052000D02*
X80552000Y-66698000D01*
X80552000Y-72802000D02*
X83350000Y-75600000D01*
X83420000Y-67620000D02*
X83420000Y-64104200D01*
X80552000Y-66698000D02*
X80552000Y-72802000D01*
X83350000Y-75600000D02*
X83350000Y-76420000D01*
%TO.N,/JTAG_MTDO*%
X83031900Y-63651000D02*
X80151000Y-66531900D01*
X83533900Y-63651000D02*
X83031900Y-63651000D01*
X87016100Y-78401000D02*
X76350000Y-78401000D01*
X88002907Y-77414193D02*
X87016100Y-78401000D01*
X89435000Y-76836285D02*
X88846285Y-77425000D01*
X86325000Y-77425000D02*
X87425000Y-76325000D01*
X89500000Y-76068715D02*
X89435000Y-76068715D01*
X80151000Y-66531900D02*
X80151000Y-73772615D01*
X82345000Y-75966615D02*
X82345000Y-76836285D01*
X76350000Y-97360000D02*
X80810000Y-101820000D01*
X88013715Y-75415000D02*
X88846285Y-75415000D01*
X84690000Y-64807100D02*
X83533900Y-63651000D01*
X82345000Y-76836285D02*
X82933715Y-77425000D01*
X82933715Y-77425000D02*
X86325000Y-77425000D01*
X76350000Y-78401000D02*
X76350000Y-97360000D01*
X87425000Y-76003715D02*
X88013715Y-75415000D01*
X88846285Y-77425000D02*
X88013715Y-77425000D01*
X87425000Y-76325000D02*
X87425000Y-76003715D01*
X89435000Y-76068715D02*
X89435000Y-76836285D01*
X88846285Y-75415000D02*
X89500000Y-76068715D01*
X88013715Y-77425000D02*
X88002907Y-77414193D01*
X80151000Y-73772615D02*
X82345000Y-75966615D01*
X84690000Y-67620000D02*
X84690000Y-64807100D01*
%TO.N,/JTAG_MTDI*%
X83700000Y-63250000D02*
X82865800Y-63250000D01*
X79750000Y-66365800D02*
X79750000Y-73938715D01*
X81815000Y-78000000D02*
X86850000Y-78000000D01*
X86850000Y-78000000D02*
X88430000Y-76420000D01*
X85960000Y-67620000D02*
X85960000Y-65510000D01*
X85960000Y-65510000D02*
X83700000Y-63250000D01*
X79750000Y-73938715D02*
X81815000Y-76003715D01*
X81815000Y-76003715D02*
X81815000Y-78000000D01*
X82865800Y-63250000D02*
X79750000Y-66365800D01*
%TO.N,/JTAG_MTMS*%
X82817100Y-74500000D02*
X89050000Y-74500000D01*
X80953000Y-67620000D02*
X80953000Y-72635900D01*
X80953000Y-72635900D02*
X82817100Y-74500000D01*
X89050000Y-74500000D02*
X90970000Y-76420000D01*
X82150000Y-67620000D02*
X80953000Y-67620000D01*
%TO.N,/GPS_RX*%
X103937715Y-99601000D02*
X102135000Y-101403715D01*
X103088715Y-95900000D02*
X140780000Y-95900000D01*
X97585000Y-101403715D02*
X103088715Y-95900000D01*
X101546285Y-102825000D02*
X98173715Y-102825000D01*
X102135000Y-102236285D02*
X101546285Y-102825000D01*
X98173715Y-102825000D02*
X97585000Y-102236285D01*
X102135000Y-101403715D02*
X102135000Y-102236285D01*
X116370000Y-101820000D02*
X114151000Y-99601000D01*
X140780000Y-95900000D02*
X145190000Y-91490000D01*
X114151000Y-99601000D02*
X103937715Y-99601000D01*
X97585000Y-102236285D02*
X97585000Y-101403715D01*
%TO.N,/GPS_TX*%
X112012000Y-100002000D02*
X106076715Y-100002000D01*
X104675000Y-102236285D02*
X103685285Y-103226000D01*
X104675000Y-101403715D02*
X104675000Y-102236285D01*
X103685285Y-103226000D02*
X98007615Y-103226000D01*
X97184000Y-102402385D02*
X97184000Y-100916000D01*
X113830000Y-101820000D02*
X112012000Y-100002000D01*
X98007615Y-103226000D02*
X97184000Y-102402385D01*
X102650000Y-95450000D02*
X138690000Y-95450000D01*
X106076715Y-100002000D02*
X104675000Y-101403715D01*
X97184000Y-100916000D02*
X102650000Y-95450000D01*
X138690000Y-95450000D02*
X145190000Y-88950000D01*
%TO.N,Net-(SW1-A)*%
X89090000Y-107330000D02*
X86350000Y-107330000D01*
X86350000Y-107330000D02*
X84940000Y-108740000D01*
%TO.N,/RENCODER_A*%
X88926000Y-103226000D02*
X87847615Y-103226000D01*
X88586000Y-100414000D02*
X88762000Y-100238000D01*
X95672000Y-109972000D02*
X88926000Y-103226000D01*
X109151000Y-81099000D02*
X113830000Y-76420000D01*
X107633900Y-81099000D02*
X109151000Y-81099000D01*
X87024000Y-102402385D02*
X87024000Y-101237615D01*
X87024000Y-101237615D02*
X87847615Y-100414000D01*
X88762000Y-100238000D02*
X88762000Y-99853800D01*
X87847615Y-100414000D02*
X88586000Y-100414000D01*
X105534900Y-83198000D02*
X107633900Y-81099000D01*
X111060214Y-107831786D02*
X108920000Y-109972000D01*
X87847615Y-103226000D02*
X87024000Y-102402385D01*
X88762000Y-99853800D02*
X105417800Y-83198000D01*
X177780000Y-103650000D02*
X173598214Y-107831786D01*
X108920000Y-109972000D02*
X95672000Y-109972000D01*
D28*
X173598214Y-107831786D02*
X111060214Y-107831786D01*
D27*
X105417800Y-83198000D02*
X105534900Y-83198000D01*
%TO.N,/RENCODER_B*%
X123424000Y-61083950D02*
X124068950Y-60439000D01*
X202310000Y-82250000D02*
X202430000Y-82250000D01*
X171591900Y-68199000D02*
X173873900Y-70481000D01*
X165270000Y-68870000D02*
X165941000Y-68199000D01*
X186454033Y-70481000D02*
X198223033Y-82250000D01*
X107307715Y-66281000D02*
X119139050Y-66281000D01*
X97585000Y-76003715D02*
X107307715Y-66281000D01*
X198223033Y-82250000D02*
X202310000Y-82250000D01*
X165941000Y-68199000D02*
X171591900Y-68199000D01*
X97585000Y-76836285D02*
X97585000Y-76003715D01*
X130990000Y-64260000D02*
X135600000Y-68870000D01*
X119139050Y-66281000D02*
X123424000Y-61996050D01*
X109884000Y-77826000D02*
X98574715Y-77826000D01*
X123424000Y-61996050D02*
X123424000Y-61083950D01*
X111290000Y-76420000D02*
X109884000Y-77826000D01*
X98574715Y-77826000D02*
X97585000Y-76836285D01*
X124068950Y-60439000D02*
X127169000Y-60439000D01*
X127169000Y-60439000D02*
X130990000Y-64260000D01*
X173873900Y-70481000D02*
X186454033Y-70481000D01*
X135600000Y-68870000D02*
X165270000Y-68870000D01*
%TO.N,/LENCODER_B*%
X110630000Y-72000000D02*
X106210000Y-76420000D01*
X178665000Y-72000000D02*
X110630000Y-72000000D01*
X182850000Y-76185000D02*
X178665000Y-72000000D01*
%TO.N,/LENCODER_A*%
X180310000Y-76185000D02*
X180310000Y-74310000D01*
X178500000Y-72500000D02*
X111000000Y-72500000D01*
X108750000Y-74750000D02*
X108750000Y-76420000D01*
X180310000Y-74310000D02*
X178500000Y-72500000D01*
X111000000Y-72500000D02*
X108750000Y-74750000D01*
%TO.N,/RXD*%
X110285000Y-100815000D02*
X108333715Y-100815000D01*
X107745000Y-105455000D02*
X108520000Y-106230000D01*
X108333715Y-100815000D02*
X107745000Y-101403715D01*
X111290000Y-101820000D02*
X110285000Y-100815000D01*
X107745000Y-101403715D02*
X107745000Y-105455000D01*
%TO.N,/RESET*%
X108520000Y-108770000D02*
X107719000Y-109571000D01*
X95765515Y-109171000D02*
X89163000Y-102568485D01*
X107800000Y-81500000D02*
X111290000Y-81500000D01*
X89163000Y-100019900D02*
X105583900Y-83599000D01*
X105701000Y-83599000D02*
X107800000Y-81500000D01*
X87425000Y-101403715D02*
X88013715Y-100815000D01*
X88013715Y-100815000D02*
X88846285Y-100815000D01*
X105583900Y-83599000D02*
X105701000Y-83599000D01*
X89163000Y-102568485D02*
X89163000Y-102508285D01*
X88846285Y-102825000D02*
X88013715Y-102825000D01*
X111290000Y-81500000D02*
X116370000Y-76420000D01*
X107719000Y-109571000D02*
X106918214Y-109571000D01*
X87425000Y-102236285D02*
X87425000Y-101403715D01*
X106918214Y-109571000D02*
X106518214Y-109171000D01*
X89163000Y-102508285D02*
X88846285Y-102825000D01*
X106518214Y-109171000D02*
X95765515Y-109171000D01*
X88846285Y-100815000D02*
X89163000Y-101131715D01*
X88013715Y-102825000D02*
X87425000Y-102236285D01*
X89163000Y-101131715D02*
X89163000Y-100019900D01*
%TO.N,/TXD*%
X108750000Y-101820000D02*
X109454000Y-102524000D01*
X109454000Y-106566000D02*
X108520000Y-107500000D01*
X109454000Y-102524000D02*
X109454000Y-106566000D01*
%TO.N,/PHOTOTRANS*%
X124641000Y-71265100D02*
X124406100Y-71500000D01*
X170711000Y-69567133D02*
X169743867Y-68600000D01*
X167409000Y-69567133D02*
X167409000Y-70934867D01*
X182373240Y-75034000D02*
X182319670Y-75087570D01*
X124641000Y-70950000D02*
X124641000Y-71265100D01*
X191740000Y-80320000D02*
X186541000Y-75121000D01*
X167424133Y-70950000D02*
X124641000Y-70950000D01*
X197705000Y-83000000D02*
X197565000Y-83140000D01*
X182319670Y-75087570D02*
X178831100Y-71599000D01*
X193362050Y-81637950D02*
X193340000Y-81660000D01*
X169743867Y-68600000D02*
X168376133Y-68600000D01*
X192831000Y-81480000D02*
X191740000Y-82571000D01*
X197350000Y-83140000D02*
X195408975Y-81198975D01*
X184239000Y-76423760D02*
X184001000Y-76661760D01*
X170145867Y-71500000D02*
X170711000Y-70934867D01*
X191740000Y-82571000D02*
X191740000Y-80320000D01*
X184001000Y-75708240D02*
X183326760Y-75034000D01*
X193160000Y-81480000D02*
X192831000Y-81480000D01*
X186541000Y-76661760D02*
X185866760Y-77336000D01*
X178599000Y-71599000D02*
X178500000Y-71500000D01*
X167409000Y-70934867D02*
X167424133Y-70950000D01*
X193340000Y-81660000D02*
X193160000Y-81480000D01*
X170711000Y-70934867D02*
X170711000Y-69567133D01*
X197565000Y-83140000D02*
X197350000Y-83140000D01*
X108590000Y-71500000D02*
X103670000Y-76420000D01*
X186541000Y-75121000D02*
X186541000Y-76661760D01*
X184001000Y-76661760D02*
X184001000Y-75708240D01*
X194970000Y-81637950D02*
X193362050Y-81637950D01*
X185866760Y-77336000D02*
X184913240Y-77336000D01*
X178831100Y-71599000D02*
X178599000Y-71599000D01*
X183326760Y-75034000D02*
X182373240Y-75034000D01*
X206300000Y-83000000D02*
X197705000Y-83000000D01*
X184913240Y-77336000D02*
X184239000Y-76661760D01*
X124406100Y-71500000D02*
X108590000Y-71500000D01*
X168376133Y-68600000D02*
X167409000Y-69567133D01*
X195408975Y-81198975D02*
X194970000Y-81637950D01*
X184239000Y-76661760D02*
X184239000Y-76423760D01*
X178500000Y-71500000D02*
X170145867Y-71500000D01*
%TO.N,/DAYNIGHT*%
X124240000Y-61825000D02*
X124525000Y-61540000D01*
X124240000Y-66060000D02*
X124240000Y-61825000D01*
X104086285Y-75415000D02*
X104097093Y-75425808D01*
X102665000Y-76420000D02*
X102665000Y-76003715D01*
X101130000Y-76420000D02*
X102665000Y-76420000D01*
X124240000Y-71099000D02*
X124240000Y-66060000D01*
X102665000Y-76003715D02*
X103253715Y-75415000D01*
X108423900Y-71099000D02*
X124240000Y-71099000D01*
X104097093Y-75425808D02*
X108423900Y-71099000D01*
X103253715Y-75415000D02*
X104086285Y-75415000D01*
%TO.N,/LMOTOR_4A*%
X105916100Y-84401000D02*
X89965000Y-100352100D01*
X144039000Y-79941000D02*
X144039000Y-79191000D01*
X146341000Y-79941000D02*
X144039000Y-79941000D01*
X156841000Y-79111000D02*
X151731000Y-79111000D01*
X162880000Y-85150000D02*
X156841000Y-79111000D01*
X92330000Y-103000000D02*
X93510000Y-101820000D01*
X144039000Y-79191000D02*
X121113900Y-79191000D01*
X150173950Y-79811000D02*
X149553950Y-79191000D01*
X120922900Y-79000000D02*
X117384200Y-79000000D01*
X151731000Y-79111000D02*
X151731000Y-79166050D01*
X151086050Y-79811000D02*
X150173950Y-79811000D01*
X89965000Y-100352100D02*
X89965000Y-102236285D01*
X117384200Y-79000000D02*
X111983200Y-84401000D01*
X90825000Y-102825000D02*
X91000000Y-103000000D01*
X90553715Y-102825000D02*
X90825000Y-102825000D01*
X146341000Y-79191000D02*
X146341000Y-79941000D01*
X151731000Y-79166050D02*
X151086050Y-79811000D01*
X149553950Y-79191000D02*
X146341000Y-79191000D01*
X89965000Y-102236285D02*
X90553715Y-102825000D01*
X91000000Y-103000000D02*
X92330000Y-103000000D01*
X121113900Y-79191000D02*
X120922900Y-79000000D01*
X111983200Y-84401000D02*
X105916100Y-84401000D01*
%TO.N,/RMOTOR_1A*%
X98590000Y-101410000D02*
X103700000Y-96300000D01*
X144713240Y-95181000D02*
X145666760Y-95181000D01*
X145722760Y-95125000D02*
X160525000Y-95125000D01*
X145666760Y-95181000D02*
X145722760Y-95125000D01*
X143594240Y-96300000D02*
X144713240Y-95181000D01*
X103700000Y-96300000D02*
X143594240Y-96300000D01*
X160525000Y-95125000D02*
X162880000Y-92770000D01*
X98590000Y-101820000D02*
X98590000Y-101410000D01*
%TO.N,/RMOTOR_2A*%
X164963950Y-91669000D02*
X174479000Y-91669000D01*
X103750000Y-99200000D02*
X143652240Y-99200000D01*
X101130000Y-101820000D02*
X103750000Y-99200000D01*
X164319000Y-100000000D02*
X164319000Y-92313950D01*
X145927760Y-100000000D02*
X164319000Y-100000000D01*
X164319000Y-92313950D02*
X164963950Y-91669000D01*
X143652240Y-99200000D02*
X144713240Y-100261000D01*
X174479000Y-91669000D02*
X175580000Y-92770000D01*
X145666760Y-100261000D02*
X145927760Y-100000000D01*
X144713240Y-100261000D02*
X145666760Y-100261000D01*
X175580000Y-92770000D02*
X176270000Y-92770000D01*
%TO.N,/LPWM_3A4A*%
X99595000Y-77425000D02*
X98590000Y-76420000D01*
X109755000Y-76836285D02*
X109166285Y-77425000D01*
X111000000Y-74000000D02*
X109755000Y-75245000D01*
X176381000Y-75708240D02*
X174672760Y-74000000D01*
X174672760Y-74000000D02*
X111000000Y-74000000D01*
X178120000Y-85150000D02*
X176381000Y-83411000D01*
X109166285Y-77425000D02*
X99595000Y-77425000D01*
X176381000Y-83411000D02*
X176381000Y-75708240D01*
X109755000Y-75245000D02*
X109755000Y-76836285D01*
%TO.N,/LMOTOR_3A*%
X151252150Y-80212000D02*
X151952150Y-79512000D01*
X90970000Y-101820000D02*
X90970000Y-99914200D01*
X161779000Y-84693950D02*
X161779000Y-85606050D01*
X163849000Y-87416100D02*
X164083900Y-87651000D01*
X144713240Y-82481000D02*
X145666760Y-82481000D01*
X150007850Y-80212000D02*
X151252150Y-80212000D01*
X106082200Y-84802000D02*
X112149300Y-84802000D01*
X143638000Y-80107100D02*
X143872900Y-80342000D01*
X146742000Y-80107100D02*
X146742000Y-79592000D01*
X163336050Y-86251000D02*
X163849000Y-85738050D01*
X151952150Y-79512000D02*
X156674900Y-79512000D01*
X112149300Y-84802000D02*
X117451300Y-79500000D01*
X117451300Y-79500000D02*
X120855800Y-79500000D01*
X144039000Y-80342000D02*
X144039000Y-81806760D01*
X174542000Y-85772150D02*
X174542000Y-84860050D01*
X156674900Y-79512000D02*
X161817925Y-84655025D01*
X146341000Y-81806760D02*
X146341000Y-80342000D01*
X144039000Y-81806760D02*
X144713240Y-82481000D01*
X143872900Y-80342000D02*
X144039000Y-80342000D01*
X146742000Y-79592000D02*
X149387850Y-79592000D01*
X172663150Y-87651000D02*
X174542000Y-85772150D01*
X174916025Y-84486025D02*
X175580000Y-85150000D01*
X146341000Y-80342000D02*
X146507100Y-80342000D01*
X120947800Y-79592000D02*
X143638000Y-79592000D01*
X120855800Y-79500000D02*
X120947800Y-79592000D01*
X161817925Y-84655025D02*
X161779000Y-84693950D01*
X149387850Y-79592000D02*
X150007850Y-80212000D01*
X143638000Y-79592000D02*
X143638000Y-80107100D01*
X174542000Y-84860050D02*
X174916025Y-84486025D01*
X162423950Y-86251000D02*
X163336050Y-86251000D01*
X164083900Y-87651000D02*
X172663150Y-87651000D01*
X163849000Y-85738050D02*
X163849000Y-87416100D01*
X146507100Y-80342000D02*
X146742000Y-80107100D01*
X90970000Y-99914200D02*
X106082200Y-84802000D01*
X145666760Y-82481000D02*
X146341000Y-81806760D01*
X161779000Y-85606050D02*
X162423950Y-86251000D01*
%TO.N,/RPWM_1A2A*%
X162581000Y-90529000D02*
X160340000Y-92770000D01*
X187536100Y-92469000D02*
X185596100Y-90529000D01*
X185596100Y-90529000D02*
X162581000Y-90529000D01*
X161560000Y-57600000D02*
X174040000Y-70080000D01*
X96050000Y-76420000D02*
X96050000Y-75378000D01*
X192667760Y-95410000D02*
X189726760Y-92469000D01*
X208232000Y-81549100D02*
X208232000Y-93306471D01*
X174040000Y-70080000D02*
X186620133Y-70080000D01*
X206128471Y-95410000D02*
X192667760Y-95410000D01*
X197940133Y-81400000D02*
X208082900Y-81400000D01*
X96050000Y-75378000D02*
X113828000Y-57600000D01*
X186620133Y-70080000D02*
X197940133Y-81400000D01*
X208082900Y-81400000D02*
X208232000Y-81549100D01*
X208232000Y-93306471D02*
X206128471Y-95410000D01*
X113828000Y-57600000D02*
X161560000Y-57600000D01*
X189726760Y-92469000D02*
X187536100Y-92469000D01*
%TD*%
M02*
